<svg width="90" height="90" viewBox="0 0 90 90" fill="none" xmlns="http://www.w3.org/2000/svg">
<path d="M18.4077 38.1277C18.4077 38.1277 18.4215 38.1069 18.4354 38.0793C18.425 38.0966 18.4181 38.1104 18.4077 38.1277Z" fill="black"/>
<path d="M18.4075 39.1526C18.2332 39.1526 18.0554 39.1082 17.8948 39.0159C17.4128 38.739 17.2419 38.1271 17.5085 37.6383C17.5119 37.6315 17.529 37.6042 17.5324 37.5973C17.8093 37.1153 18.4246 36.9273 18.9134 37.1906C19.4056 37.4572 19.6039 38.0554 19.3441 38.5544C19.3441 38.5544 19.3441 38.5613 19.3373 38.5647C19.3099 38.6194 19.2894 38.6467 19.2791 38.6672C19.0843 38.9817 18.7493 39.156 18.4041 39.156L18.4075 39.1526Z" fill="white"/>
<path d="M11.534 24.9738C11.534 24.9738 11.5477 24.9601 11.5579 24.9532C11.428 25.0353 11.4485 25.0353 11.493 25.0079C11.5067 24.9977 11.5169 24.9908 11.5306 24.9806C11.5306 24.9806 11.5306 24.9806 11.534 24.9772V24.9738Z" fill="black"/>
<path d="M11.4617 26.0471C11.2464 26.0471 11.0789 25.9787 10.99 25.9309C10.6653 25.7634 10.4533 25.4318 10.4362 25.066C10.4089 24.4679 10.8601 24.1807 11.0071 24.085C11.4583 23.7945 12.0565 23.9038 12.3812 24.3311C12.7025 24.7584 12.641 25.3669 12.2377 25.7189C12.2308 25.7258 12.2206 25.7326 12.2103 25.7429C12.1898 25.7599 12.1693 25.777 12.1488 25.7941C12.1454 25.7975 12.1214 25.8146 12.118 25.8181C12.0941 25.8386 12.077 25.8488 12.0497 25.8659C11.8377 26.0026 11.636 26.0471 11.4651 26.0471H11.4617ZM11.7899 25.3156L12.1078 25.8146C12.1078 25.8146 12.1317 25.7975 12.1419 25.7873L11.7899 25.3156ZM11.6771 25.1344L12.2001 25.7326C12.4974 25.4318 12.6102 24.8917 12.3129 24.4508C11.9813 23.9517 11.3352 23.8868 10.9387 24.1397L11.1028 24.3961L11.2806 24.6353L11.5574 24.9532L11.6771 25.1378V25.1344Z" fill="white"/>
<path d="M15.7626 18.8654C15.7488 18.893 15.7384 18.9241 15.7419 18.9414C15.7419 18.9414 15.7419 18.938 15.7419 18.9345C15.7419 18.9207 15.7488 18.8965 15.7592 18.8654H15.7626Z" fill="black"/>
<path d="M15.7419 19.9661C15.7146 19.9661 15.6906 19.9661 15.6633 19.9661C15.195 19.9319 14.8087 19.5832 14.7301 19.1183C14.6925 18.8927 14.7267 18.6603 14.8327 18.4313C15.0685 17.9322 15.653 17.71 16.1623 17.9254C16.6477 18.1305 16.8938 18.6705 16.7434 19.1696C16.7264 19.238 16.7024 19.3063 16.6751 19.3713C16.5076 19.7336 16.1453 19.9695 15.7453 19.9695L15.7419 19.9661ZM16.3435 19.1388L16.7093 19.2619C16.7434 19.1764 16.7947 18.9953 16.7537 18.7628L15.8752 18.9167L16.3469 19.1388H16.3435Z" fill="white"/>
<path d="M69.8496 47.3837C69.8348 47.4059 69.8385 47.4022 69.8496 47.3837V47.3837Z" fill="black"/>
<path d="M69.8352 48.4228C69.8078 48.4228 69.7805 48.4228 69.7566 48.4228C69.3874 48.3921 69.0661 48.1665 68.9088 47.8315C68.7516 47.4965 68.7995 47.0897 69.0182 46.7889C69.3464 46.3343 69.9787 46.2249 70.4402 46.5462C70.8983 46.8675 71.0145 47.4999 70.7 47.9648C70.6966 47.9716 70.6897 47.9785 70.6829 47.9887C70.4881 48.2588 70.1702 48.4263 69.8386 48.4263L69.8352 48.4228Z" fill="white"/>
<path d="M82.4144 56.2779C82.3563 55.8507 82.0179 55.3584 81.5564 55.2832C81.1121 55.2115 80.695 55.0986 80.2678 54.9619C80.2336 54.9448 80.196 54.9277 80.1618 54.9072C80.0798 54.8628 80.0011 54.8115 79.9225 54.7637C79.7311 54.6406 79.5363 54.5244 79.3517 54.3911C79.3175 54.3671 79.2799 54.333 79.2457 54.3125C79.1808 54.2578 79.1124 54.2031 79.0474 54.1484C78.8253 53.9672 78.5928 53.7929 78.357 53.6288C78.2749 53.5741 78.1895 53.5194 78.1074 53.4613C78.0732 53.4374 78.0357 53.41 78.0015 53.3861C77.8306 53.2323 77.6528 53.0853 77.4887 52.9247C77.1811 52.6238 76.9213 52.282 76.6513 51.947C76.3846 51.6189 76.0872 51.3352 75.7864 51.0378C75.7283 50.9797 75.6737 50.9181 75.619 50.8566C75.595 50.8156 75.5335 50.7541 75.5164 50.7336C75.3421 50.4943 75.1643 50.255 74.9797 50.0226C74.9763 50.0123 74.9661 49.9918 74.9456 49.9576C74.8943 49.8688 74.8533 49.7765 74.802 49.691C74.6892 49.4962 74.5627 49.3082 74.4465 49.1167C74.3269 48.9151 74.1765 48.7373 74.0671 48.5288C73.9509 48.31 73.8278 48.0981 73.7047 47.8793C73.6432 47.7665 73.5817 47.6537 73.527 47.5375C73.5031 47.4931 73.4826 47.4452 73.4621 47.4008C73.4621 47.4008 73.4621 47.3974 73.4621 47.394C73.4655 47.3427 73.3595 47.1273 73.3458 47.0863C73.3185 47.0043 73.2946 46.9188 73.274 46.8334C73.2535 46.5838 73.233 46.3377 73.1544 46.0984C73.0929 45.907 73.0348 45.719 72.9903 45.5208C72.9562 44.9123 72.4332 44.3449 71.8008 44.3757C71.7632 44.3757 71.7256 44.3859 71.688 44.3893C71.6333 44.3825 71.5752 44.3757 71.5171 44.3757C70.8779 44.403 70.3583 44.8781 70.3275 45.5208C70.2865 45.7156 70.225 45.907 70.1635 46.095C70.0883 46.3309 70.0643 46.5702 70.0472 46.8129C70.0096 46.9769 69.9584 47.141 69.8968 47.2982C69.8866 47.3256 69.8626 47.3598 69.8524 47.3803C69.8592 47.37 69.8695 47.3564 69.8866 47.3324C69.9994 47.1854 69.8763 47.3529 69.8558 47.3974C69.808 47.5033 69.7567 47.6059 69.702 47.7084C69.4969 48.1015 69.285 48.5117 69.032 48.8775C68.8064 49.2022 68.5979 49.5509 68.4099 49.8995C68.3894 49.9405 68.362 49.9781 68.3415 50.0192C68.3347 50.0294 68.3347 50.0328 68.3347 50.0397C68.239 50.1593 68.1467 50.2789 68.0544 50.402C67.9929 50.484 67.9348 50.5661 67.8767 50.6481C67.8459 50.6891 67.8186 50.7301 67.7878 50.7712C67.7878 50.7712 67.7878 50.7746 67.7844 50.7746C67.7399 50.8019 67.4255 51.1608 67.3844 51.1984C67.2238 51.3523 67.0665 51.5061 66.923 51.6736C66.7418 51.8821 66.5743 52.0974 66.4 52.3128C66.4273 49.8448 66.4649 47.3256 66.5777 44.8542L66.5846 44.6867C66.8375 39.1082 67.0973 33.3382 66.0445 27.5648C65.3848 23.9517 63.6244 21.5624 60.8078 20.472C56.9964 18.9953 50.8094 18.6842 46.2905 18.6842C44.055 18.6842 42.2946 18.7628 41.7955 18.8004C37.5022 19.1252 32.4433 19.6276 27.4663 20.865C25.2923 21.4051 23.655 22.3281 22.4996 23.6783C22.4552 23.6167 22.4107 23.5552 22.3663 23.4971C22.0655 23.0972 21.7373 22.7519 21.4092 22.3793C21.3955 22.3657 21.3853 22.352 21.3716 22.3349C21.3169 22.2528 21.2588 22.1708 21.2041 22.0888C21.0879 21.9144 20.9717 21.7401 20.8486 21.5692C20.7324 21.4085 20.6572 21.2342 20.5649 21.0565C20.4658 20.8685 20.353 20.6907 20.2538 20.5027C20.1445 20.2976 20.0077 20.1165 19.9018 19.9079C19.7924 19.6892 19.6796 19.467 19.5702 19.2482C19.5189 19.1457 19.4676 19.0431 19.4198 18.9372C19.4198 18.9372 19.389 18.8517 19.3685 18.8175C19.3685 18.8107 19.3651 18.8073 19.3617 18.8004C19.2796 18.5851 19.2079 18.3663 19.1566 18.1441C19.1361 17.9049 19.1224 17.669 19.0575 17.4331C19.0028 17.2383 18.9447 17.04 18.9036 16.8418C18.8865 16.2231 18.3533 15.6317 17.7107 15.6625C17.6765 15.6625 17.6423 15.6728 17.6047 15.6762C17.5534 15.6693 17.5022 15.6625 17.4475 15.6659C16.798 15.6933 16.2682 16.1821 16.2545 16.8452C16.2135 17.0435 16.1554 17.2417 16.1007 17.4366C16.0323 17.6724 16.0186 17.9117 16.0016 18.151C15.9605 18.3219 15.9093 18.4928 15.8512 18.6603C15.8409 18.6876 15.793 18.7902 15.7623 18.8654C15.7862 18.8141 15.817 18.7731 15.7725 18.8722C15.7623 18.8927 15.752 18.9132 15.7452 18.9337C15.7452 18.9337 15.7452 18.944 15.7452 18.9474C15.7452 18.9474 15.7452 18.944 15.7452 18.9406C15.7247 18.9884 15.7008 19.0363 15.6802 19.0807C15.4957 19.467 15.3077 19.8738 15.0786 20.2361C14.8667 20.5711 14.6753 20.9232 14.5044 21.2787C14.3266 21.641 14.0566 21.9862 13.8241 22.3178C13.8105 22.3349 13.8002 22.352 13.7865 22.3691C13.7216 22.4374 13.6601 22.5092 13.5951 22.5776C13.4516 22.728 13.3114 22.875 13.1815 23.0356C13.0003 23.2612 12.826 23.4937 12.6585 23.7261C12.6004 23.8081 12.5423 23.8902 12.4842 23.9688C12.4568 24.0064 12.4329 24.0406 12.4056 24.0782C12.1287 24.3756 11.8689 24.6798 11.5613 24.9498C11.5749 24.9396 11.592 24.9293 11.6091 24.9191C11.5818 24.9362 11.5579 24.9567 11.5339 24.9772C11.5203 24.9874 11.5066 24.9977 11.4963 25.0045C11.4929 25.0045 11.4861 25.0114 11.4827 25.0148C11.3425 25.1207 11.2024 25.2267 11.0622 25.3361C10.8879 25.4694 10.7272 25.6164 10.5666 25.7634C10.4845 25.8386 10.3991 25.9138 10.3102 25.9856C10.3034 25.989 10.2965 25.9958 10.2897 26.0027C10.4162 25.8864 10.2658 26.0197 10.2282 26.0471C10.0504 26.1736 9.87266 26.3035 9.68808 26.4128C9.64022 26.4402 9.59237 26.4641 9.54451 26.488C9.43855 26.5256 9.336 26.5632 9.23004 26.594C8.97367 26.6726 8.71047 26.7273 8.44726 26.7752C7.98922 26.8572 7.6474 27.3426 7.58929 27.7699C7.52434 28.245 7.74652 28.7133 8.16013 28.9628C8.55323 29.1987 8.97367 29.3764 9.37702 29.5884C9.78379 29.8003 10.1803 30.0498 10.5734 30.2891C10.6144 30.313 10.7717 30.4429 10.8264 30.46C10.8434 30.4771 10.864 30.4908 10.881 30.5079C11.0485 30.6549 11.2092 30.8053 11.3801 30.9488C11.7048 31.2189 12.0193 31.4958 12.3304 31.7863C12.6551 32.0939 12.9593 32.4221 13.2772 32.7366C13.431 32.887 13.578 33.0442 13.7148 33.2083C13.7148 33.2083 13.7182 33.2117 13.7182 33.2151C13.6156 33.1023 13.7524 33.2596 13.7695 33.2869C13.8412 33.3895 13.9096 33.492 13.978 33.598C14.2172 33.974 14.436 34.3636 14.6548 34.7499C14.7607 34.9379 14.8633 35.1259 14.9556 35.3208C14.9727 35.3584 14.9932 35.437 15.0205 35.4746C15.0547 35.5737 15.0923 35.6728 15.1333 35.772C15.3453 36.3052 15.6085 36.8043 15.8751 37.3102C15.9229 37.4059 15.9742 37.4982 16.0255 37.5939C16.0357 37.611 16.0631 37.6657 16.087 37.7135C16.1144 37.8024 16.1383 37.8776 16.1793 37.9699C16.2921 38.2399 16.4664 38.4724 16.7331 38.6159C17.321 38.9338 18.0081 38.7458 18.3704 38.1852C18.3841 38.1647 18.3943 38.1442 18.4046 38.1237C18.3499 38.2126 18.678 37.4913 18.5345 37.8195C18.449 38.0177 18.555 37.7956 18.5755 37.7545C18.6746 37.5734 18.7669 37.3888 18.8626 37.2076C19.0711 36.8248 19.3241 36.4659 19.5326 36.0864C19.6283 35.9121 19.7308 35.7378 19.8368 35.5703C19.2044 43.7057 19.1839 51.3078 19.7753 58.534C19.683 58.4519 19.5941 58.3665 19.5121 58.2742C19.2967 58.0315 19.1121 57.7649 18.8763 57.5427C18.825 57.4914 18.7703 57.4436 18.7225 57.3923C18.6985 57.3649 18.6746 57.3376 18.6507 57.3102C18.6131 57.2556 18.5721 57.2043 18.5345 57.1496C18.4934 57.0949 18.4524 57.0436 18.4114 56.9889C18.4012 56.9753 18.3943 56.9684 18.3875 56.9548C18.3328 56.8693 18.1756 56.5924 18.1653 56.5753C18.0867 56.4489 18.0012 56.3292 17.926 56.1993C17.844 56.0558 17.7619 55.9088 17.6833 55.7618C17.6799 55.7515 17.6457 55.6934 17.615 55.6387C17.6115 55.6251 17.6047 55.608 17.5945 55.584C17.5842 55.5601 17.5774 55.5362 17.5671 55.5123C17.5569 55.4781 17.5466 55.4473 17.5363 55.4131C17.5363 55.2935 17.5158 55.1704 17.4851 55.0576C17.468 54.9893 17.444 54.9243 17.4235 54.8594C17.3962 54.7705 17.3791 54.5073 17.3928 54.8013C17.3688 54.2646 16.9382 53.7519 16.3673 53.7758C16.3468 53.7758 16.3263 53.7826 16.3058 53.7826C16.275 53.7826 16.2477 53.7758 16.2169 53.7758C15.6426 53.8031 15.2154 54.227 15.1914 54.8013C15.2051 54.5073 15.188 54.7705 15.1607 54.8594C15.1402 54.9243 15.1162 54.9893 15.0991 55.0576C15.0718 55.1739 15.0581 55.3003 15.0479 55.4234C15.041 55.4371 15.0376 55.4507 15.0308 55.4747C15.0205 55.5123 15.0069 55.5464 14.9932 55.584C14.9522 55.69 14.9556 55.6797 15.0069 55.5533C14.9966 55.6216 14.9351 55.7037 14.9043 55.7618C14.8257 55.9088 14.7436 56.0558 14.6616 56.2027C14.6274 56.2643 14.2036 56.9787 14.1831 56.9821C14.1386 57.0368 14.0976 57.0949 14.0532 57.1496C14.0121 57.2043 13.9711 57.2624 13.9301 57.3205C13.9096 57.3444 13.8891 57.3684 13.8652 57.3923C13.8173 57.4436 13.7626 57.4914 13.7113 57.5427C13.4755 57.7683 13.2943 58.0349 13.079 58.2776C12.9662 58.4075 12.8363 58.5203 12.7098 58.6365C12.7064 58.6365 12.7064 58.6399 12.703 58.6434C12.6995 58.6434 12.6961 58.6434 12.6927 58.6502C12.6312 58.6912 12.5731 58.7322 12.5115 58.7732C12.3406 58.8929 12.1834 59.0399 12.0159 59.1629C11.9817 59.1834 11.9407 59.2108 11.9304 59.2176C11.8723 59.2552 11.8108 59.2928 11.7527 59.3304C11.739 59.3407 11.6809 59.3817 11.6296 59.4125C11.5852 59.4296 11.5408 59.4432 11.4929 59.4569C11.3186 59.5082 11.1408 59.5458 10.9631 59.5765C10.57 59.6415 10.276 60.0688 10.2282 60.4277C10.1769 60.8174 10.3581 61.2549 10.717 61.4497C11.0075 61.607 11.322 61.7164 11.6125 61.8736C11.7561 61.9522 11.9031 62.0308 12.0467 62.1094C12.1048 62.1402 12.1629 62.1744 12.221 62.2086C12.262 62.2325 12.2996 62.2598 12.3372 62.2906C12.303 62.2667 12.2723 62.2393 12.2381 62.2154C12.2894 62.2222 12.4022 62.3487 12.4432 62.3829C12.5491 62.4649 12.6551 62.547 12.7611 62.6256C12.7884 62.6461 12.8123 62.6632 12.8397 62.6837C12.8739 62.7145 12.9046 62.7452 12.9149 62.7521C13.161 62.9606 13.3934 63.1759 13.6293 63.3947C13.725 63.4836 13.8583 63.593 13.9301 63.7092C13.9438 63.7331 13.9575 63.757 13.9677 63.7707C14.019 63.8459 14.0668 63.9177 14.1147 63.9929C14.2036 64.133 14.2924 64.2732 14.3779 64.4133C14.4155 64.4783 14.4565 64.5432 14.4907 64.6116C14.5146 64.656 14.5351 64.7005 14.5556 64.7449C14.542 64.7141 14.5351 64.6936 14.5249 64.6731C14.5898 64.7039 14.6548 64.9842 14.7026 65.0867C14.7334 65.1517 14.7676 65.2166 14.8018 65.2781C14.8735 65.4046 14.9453 65.5311 15.0205 65.6576C15.041 65.6918 15.0923 65.7738 15.1299 65.8353C15.1641 65.9242 15.1914 66.0199 15.2393 66.0985C15.3316 66.2489 15.4683 66.3993 15.629 66.478C16.1451 66.7309 16.7125 66.6044 17.0304 66.1088C17.1706 65.8934 17.2766 65.6542 17.4201 65.4388C17.5945 65.1756 17.7551 64.8953 17.9397 64.6389C17.9499 64.6218 17.9841 64.5774 18.0115 64.5398C18.0901 64.4338 18.1756 64.3313 18.2542 64.2288C18.343 64.1125 18.4285 63.9997 18.514 63.8835C18.5174 63.8767 18.5174 63.8767 18.5208 63.8733C18.5345 63.8596 18.5447 63.8425 18.5584 63.8254C18.6028 63.7707 18.6507 63.7126 18.6985 63.6613C18.8011 63.5485 18.9139 63.446 19.0301 63.3434C19.2523 63.1452 19.4711 62.9435 19.6967 62.7487C19.7069 62.7384 19.7514 62.6974 19.7924 62.6598C19.806 62.6529 19.83 62.6359 19.8778 62.6017C19.9667 62.5333 20.0556 62.4615 20.141 62.3897C20.3119 63.8698 20.5068 65.3328 20.729 66.7856C21.1289 69.3869 21.4947 71.1883 22.8654 72.4428C24.2361 73.6973 26.0683 73.9092 28.7037 74.0869C28.8233 74.0938 28.9396 74.104 29.0592 74.1143C29.2267 74.128 29.3942 74.1416 29.5617 74.1519C32.1835 74.316 34.8053 74.3365 36.7947 74.3365C37.7347 74.3365 38.6747 74.3296 39.6147 74.3262C40.5445 74.3228 41.4776 74.316 42.4074 74.316C43.3372 74.316 44.1712 74.3228 44.9301 74.333C45.2274 74.3365 45.5214 74.3399 45.8188 74.3399C48.6662 74.3399 51.5033 74.1485 54.2516 73.9639C56.1248 73.8374 58.0595 73.7075 59.9498 73.6426C63.433 73.5229 65.0805 72.0223 65.6309 68.4674C65.7061 67.9751 65.7779 67.4932 65.8291 66.9873C66.0411 64.8064 66.1607 62.6188 66.2393 60.4413C66.4786 60.6567 66.711 60.8755 66.9503 61.0908C67.1144 61.2412 67.2785 61.3848 67.4323 61.5454C67.5109 61.6275 67.5895 61.7129 67.6613 61.7984C67.6613 61.7984 67.7228 61.8838 67.7468 61.9044C67.7468 61.9044 67.7468 61.9078 67.7502 61.9112C68.0202 62.2838 68.2629 62.6769 68.5056 63.0665C68.6287 63.2648 68.7483 63.4596 68.8611 63.6647C68.9124 63.7604 68.9602 63.8562 69.0081 63.9553C69.0286 64.0031 69.0491 64.051 69.0662 64.0989C69.2952 64.656 69.5892 65.1688 69.89 65.6883C69.972 65.8285 70.0507 65.9789 70.1395 66.1156C70.1498 66.1498 70.16 66.1806 70.16 66.1908C70.266 66.5087 70.4711 66.8266 70.7822 66.977C71.4043 67.2812 72.0196 67.1069 72.4195 66.5463C72.4776 66.4643 72.5049 66.3925 72.546 66.2968C72.5289 66.3378 72.7032 65.9174 72.5938 66.1874C72.5152 66.3857 72.6178 66.1737 72.6451 66.1259C72.7579 65.9379 72.8639 65.743 72.9767 65.555C73.2194 65.1551 73.5065 64.7859 73.7423 64.3826C73.8551 64.1877 73.9679 63.9997 74.0978 63.8151C74.1696 63.716 74.2414 63.6169 74.3132 63.5212C74.3166 63.5143 74.32 63.5109 74.3234 63.5075C74.3576 63.4631 74.3952 63.4152 74.4294 63.3708C74.6174 63.1315 74.802 62.8922 74.9832 62.6495C75.0447 62.5675 75.1028 62.4889 75.1643 62.4068C75.2019 62.3556 75.2395 62.3043 75.2771 62.253C75.2771 62.253 75.2806 62.2462 75.284 62.2462C75.8411 61.5557 76.5077 60.9575 77.1777 60.3832C77.3383 60.2465 77.499 60.1064 77.6596 59.9696C77.7314 59.9081 77.8066 59.8466 77.8818 59.785C77.916 59.7577 77.9502 59.7338 77.981 59.7098C78.2202 59.5287 78.4561 59.3441 78.6851 59.1493C78.7227 59.1185 78.7603 59.0843 78.7979 59.0535C78.8116 59.0433 78.8218 59.033 78.8355 59.0228C78.8526 59.0091 78.8697 58.9989 78.8868 58.9852C78.9483 58.9442 79.0098 58.9031 79.0748 58.8655C79.5055 58.6058 79.9533 58.3562 80.4045 58.134C80.8762 57.9016 81.3684 57.7136 81.8299 57.4641C82.2503 57.235 82.4623 56.7291 82.4007 56.2711L82.4144 56.2779ZM79.2765 54.3398C79.2765 54.3398 79.256 54.3227 79.2457 54.3125C79.3004 54.3535 79.4132 54.4492 79.2765 54.3398ZM79.2389 54.309C79.2389 54.309 79.2252 54.2988 79.2218 54.2954C79.2218 54.2954 79.232 54.3022 79.2389 54.309ZM75.5848 50.8259C75.4925 50.7233 75.5438 50.7746 75.5848 50.8259V50.8259ZM12.3987 24.0816C12.3987 24.0816 12.3953 24.0884 12.3919 24.0919C12.2962 24.2218 12.3372 24.1568 12.3987 24.0816ZM10.7751 30.4122C10.7751 30.4122 10.7956 30.4293 10.8058 30.4395C10.7477 30.3917 10.6589 30.313 10.7751 30.4122ZM15.0034 35.4096C15.0034 35.4096 15.0103 35.4267 15.0137 35.437C14.9863 35.3652 14.9522 35.2661 15.0034 35.4096ZM18.3977 37.0743C18.4217 37.1529 18.449 37.1769 18.3977 37.0743V37.0743ZM18.408 56.9855C18.408 56.9855 18.4012 56.9753 18.3909 56.965C18.3977 56.9718 18.4012 56.9787 18.408 56.9855ZM17.6081 55.6319C17.591 55.5943 17.5739 55.5635 17.5774 55.5567C17.591 55.5909 17.6013 55.6148 17.6081 55.6319ZM11.6228 59.4227C11.5818 59.4501 11.5408 59.4706 11.5305 59.4637C11.5613 59.4501 11.592 59.4364 11.6228 59.4227ZM12.7645 62.629C12.7645 62.629 12.8021 62.6529 12.8363 62.6837C12.8192 62.67 12.7953 62.6529 12.7645 62.629ZM70.1259 66.037C70.1259 66.037 70.1327 66.0541 70.1361 66.078C70.1259 66.0541 70.119 66.037 70.1259 66.037ZM72.44 65.4251C72.44 65.4251 72.4297 65.4012 72.4263 65.3909C72.4981 65.5277 72.4708 65.5311 72.44 65.4251ZM74.2893 63.5725C74.2893 63.5725 74.3098 63.5451 74.3234 63.5314C74.3098 63.5519 74.2961 63.569 74.2893 63.5725ZM77.8271 59.8432C77.8271 59.8432 77.8442 59.8295 77.8511 59.8261C77.8408 59.8363 77.8306 59.8432 77.8271 59.8432Z" fill="black"/>
<path d="M45.8324 75.3688C45.5316 75.3688 45.2308 75.3688 44.93 75.3619C44.1745 75.3517 43.3542 75.3448 42.421 75.3448C41.4878 75.3448 40.5649 75.3483 39.6351 75.3551C38.6917 75.3585 37.7517 75.3654 36.8083 75.3654C34.8018 75.3654 32.1595 75.3448 29.5103 75.1774C29.336 75.1671 29.1617 75.1534 28.9873 75.1363C28.8745 75.1261 28.7617 75.1158 28.6489 75.109C25.8836 74.921 23.7985 74.6749 22.1851 73.1982C20.5682 71.7181 20.1478 69.6706 19.7273 66.9394C19.6009 66.1225 19.4847 65.2918 19.3753 64.4612L19.3582 64.4817L19.3411 64.5022C19.2556 64.6218 19.1633 64.7381 19.0745 64.8577L18.9685 64.9944C18.9241 65.0491 18.883 65.1038 18.8386 65.1619L18.7805 65.2405C18.6814 65.3807 18.5891 65.5277 18.5002 65.6712C18.4284 65.7875 18.3566 65.9037 18.2814 66.0165C18.2233 66.1054 18.1721 66.1977 18.1242 66.2899C18.0524 66.4198 17.9806 66.5497 17.902 66.6728C17.3072 67.5957 16.1895 67.8965 15.1845 67.4077C14.8632 67.2505 14.5761 66.9804 14.371 66.6386C14.2924 66.5121 14.2479 66.3891 14.2137 66.3036C14.183 66.2523 14.1522 66.2045 14.1385 66.1806L14.0804 66.0814C14.0223 65.9823 13.9642 65.8832 13.9095 65.784C13.8651 65.702 13.8206 65.6234 13.783 65.5414C13.7557 65.4867 13.7215 65.3944 13.6873 65.2952C13.6668 65.2611 13.6463 65.2235 13.6292 65.1893C13.6155 65.1619 13.6019 65.1312 13.5882 65.1038C13.5609 65.0525 13.5301 64.9979 13.4993 64.9466C13.4241 64.8167 13.3387 64.6868 13.2566 64.5569C13.2156 64.492 13.1746 64.427 13.1302 64.3621C13.1233 64.3518 13.1028 64.321 13.0823 64.2869C13.055 64.2561 13.0208 64.2288 12.9934 64.2048L12.8635 64.0886C12.6653 63.904 12.4636 63.7194 12.2585 63.5451C12.2517 63.5417 12.2277 63.5178 12.197 63.4904L12.1594 63.4631C12.0432 63.3742 11.9304 63.2887 11.8176 63.2033C11.7936 63.1828 11.7629 63.1588 11.7287 63.1247C11.7116 63.1144 11.6979 63.1007 11.6808 63.0905C11.6398 63.0666 11.6022 63.0426 11.5612 63.0221L11.1305 62.7863C11.0074 62.7179 10.881 62.6632 10.7511 62.6085C10.5767 62.5333 10.4024 62.4547 10.2349 62.3624C9.51025 61.9727 9.10006 61.1455 9.21628 60.3012C9.31541 59.556 9.89309 58.722 10.7989 58.575C10.9562 58.5476 11.0758 58.5237 11.1783 58.493C11.1886 58.4861 11.2023 58.4793 11.2057 58.4759L11.2535 58.4451C11.2911 58.4212 11.3287 58.3972 11.3664 58.3733L11.4416 58.3255C11.4997 58.2844 11.5544 58.2366 11.609 58.1922C11.7116 58.1067 11.8176 58.0212 11.9269 57.946C11.9748 57.9119 12.0227 57.8811 12.0705 57.8469L12.1047 57.8161C12.1765 57.7512 12.2483 57.6863 12.3098 57.6145C12.3816 57.5359 12.4465 57.4538 12.5115 57.3718C12.6516 57.1974 12.8088 57.0026 13.0037 56.8146L13.0584 56.7599C13.0789 56.7394 13.0994 56.7223 13.1199 56.7018C13.1575 56.6505 13.1917 56.6027 13.2293 56.5514L13.366 56.3771C13.4515 56.2472 13.7249 55.7823 13.7728 55.7003C13.848 55.5704 13.9232 55.4302 13.9984 55.2935C14.0086 55.273 14.0223 55.2525 14.0326 55.2285C14.0326 55.2285 14.0326 55.2251 14.0326 55.2217C14.0462 55.1021 14.0633 54.9653 14.0975 54.8218C14.1146 54.7466 14.1385 54.6748 14.1625 54.6064L14.1693 54.5722C14.1796 54.4936 14.1966 54.4218 14.2206 54.3535C14.4325 53.4511 15.1982 52.8016 16.169 52.7572C16.21 52.7572 16.2476 52.7572 16.2852 52.7572C16.2954 52.7572 16.3023 52.7572 16.3125 52.7572C16.8765 52.7298 17.4303 52.9588 17.8268 53.3793C18.0729 53.6425 18.2541 53.9706 18.3464 54.3193C18.3737 54.3979 18.3977 54.48 18.4079 54.5722L18.4147 54.6133C18.4353 54.6782 18.4592 54.7466 18.4763 54.8115C18.4899 54.8594 18.5002 54.9072 18.507 54.9551C18.2438 49.9713 18.2575 44.8405 18.5549 39.4295C17.8781 39.8738 17.003 39.932 16.2442 39.5252C15.7895 39.2791 15.4477 38.8928 15.2324 38.3767C15.1914 38.2775 15.1606 38.1921 15.1298 38.1032L14.9487 37.7614C14.682 37.2521 14.4086 36.7291 14.1796 36.1582C14.1454 36.0728 14.1146 35.9873 14.0838 35.9019C14.0531 35.8369 14.0292 35.7788 14.0155 35.7378C13.9369 35.5771 13.848 35.4165 13.7591 35.2592C13.5335 34.8559 13.3318 34.5004 13.1131 34.1551C13.0584 34.0697 13.0037 33.9876 12.9456 33.9056L12.9251 33.8817C12.9046 33.8543 12.8806 33.827 12.8635 33.7996C12.7678 33.6903 12.6687 33.5843 12.5559 33.4715C12.4226 33.3382 12.2893 33.2049 12.1594 33.0681C11.9851 32.8904 11.8107 32.7092 11.6261 32.5383C11.339 32.2649 11.0416 32.0051 10.7237 31.7419C10.6075 31.6462 10.4947 31.5436 10.3853 31.4445C10.3375 31.4 10.2862 31.3556 10.2383 31.3112C10.1563 31.2599 10.0845 31.2086 10.0196 31.1574L9.87942 31.0685C9.54101 30.86 9.22312 30.6651 8.9018 30.4976C8.76849 30.4293 8.63176 30.3643 8.49845 30.2994C8.21474 30.1626 7.92077 30.0191 7.6268 29.8413C6.86454 29.3833 6.44751 28.5151 6.56715 27.6332C6.67312 26.8367 7.29182 25.9377 8.25918 25.7668C8.52238 25.7189 8.73431 25.6711 8.92573 25.613C8.98042 25.5959 9.03512 25.5754 9.08981 25.5549L9.15817 25.5241C9.28123 25.4523 9.39745 25.3669 9.51367 25.2848L9.63331 25.196C9.66407 25.1686 9.69483 25.1481 9.7256 25.1242C9.77345 25.0831 9.82131 25.0421 9.86916 24.9977C10.0435 24.8405 10.2212 24.6798 10.4229 24.5226C10.5665 24.4098 10.7135 24.297 10.8605 24.1876C10.8605 24.1876 10.8673 24.1807 10.8741 24.1773C11.069 24.003 11.2535 23.8013 11.4484 23.586L11.6432 23.3638L11.8176 23.1211C12.0158 22.8476 12.197 22.6049 12.3747 22.3862C12.5286 22.1982 12.6858 22.0307 12.8464 21.8598C12.8704 21.8324 12.8943 21.8085 12.9182 21.7811C12.9387 21.7572 12.9592 21.7367 12.9798 21.7128C13.031 21.641 13.0823 21.5658 13.137 21.494C13.3079 21.2547 13.472 21.0291 13.5711 20.824C13.7728 20.4104 13.9847 20.0242 14.2001 19.6858C14.3744 19.4123 14.5248 19.0944 14.6855 18.756L14.7675 18.5817C14.7743 18.5543 14.7846 18.5236 14.7948 18.4962C14.8188 18.4381 14.8495 18.3629 14.8735 18.3082L14.8803 18.2911C14.9179 18.1817 14.9487 18.0826 14.9726 17.9869C14.9931 17.7408 15.0136 17.4605 15.1025 17.1528L15.1162 17.1084C15.1538 16.9751 15.1948 16.8384 15.2255 16.7051C15.3178 15.5736 16.2305 14.6951 17.4029 14.6404C17.4713 14.6404 17.5328 14.6404 17.5875 14.6404C17.6115 14.6404 17.6354 14.637 17.6627 14.6336C18.2233 14.6063 18.7737 14.8148 19.2009 15.2147C19.6214 15.6078 19.8812 16.1411 19.9256 16.7016C19.9564 16.835 19.994 16.9683 20.0316 17.1016L20.0452 17.1528C20.1307 17.4571 20.1546 17.7339 20.1717 17.9801C20.2059 18.1134 20.2503 18.2535 20.3084 18.4073C20.329 18.4518 20.346 18.4962 20.3631 18.5372C20.4007 18.6193 20.4418 18.6979 20.4828 18.7799C20.5717 18.9543 20.6571 19.1252 20.746 19.2995L20.8178 19.4465C20.8588 19.5251 20.9066 19.6003 20.9545 19.6755C21.0263 19.7883 21.0981 19.9011 21.1596 20.0207C21.2006 20.0994 21.245 20.1746 21.2895 20.2498C21.3544 20.3592 21.416 20.4685 21.4741 20.5813L21.5458 20.7249C21.5937 20.824 21.6381 20.9095 21.6757 20.9608C21.7954 21.1248 21.9082 21.2923 22.0176 21.4598L22.1885 21.7128L22.4072 21.9555C22.4619 22.017 22.5166 22.0785 22.5747 22.1401C23.7711 21.0872 25.3025 20.3386 27.2167 19.8635C32.2654 18.609 37.3791 18.0997 41.7168 17.7715C42.2296 17.7339 44.0241 17.6519 46.2904 17.6519C50.8982 17.6519 57.2219 17.9732 61.1803 19.5114C64.3524 20.742 66.3281 23.3877 67.0528 27.3768C68.1261 33.263 67.8629 39.0911 67.6065 44.7277L67.5997 44.8952C67.5313 46.4198 67.4903 47.9614 67.463 49.4757C67.4732 49.4552 67.4869 49.4381 67.4971 49.4175C67.7228 49.0005 67.9518 48.6211 68.1842 48.2861C68.3859 47.9956 68.5705 47.6401 68.7482 47.2982L68.7858 47.2265C68.8097 47.1786 68.8371 47.1308 68.861 47.0829C68.885 47.0077 68.9157 46.9325 68.9567 46.8607C68.9841 46.7821 69.008 46.7103 69.0251 46.6488C69.0456 46.3856 69.0832 46.0882 69.1823 45.7771C69.2336 45.6199 69.2746 45.4866 69.3054 45.3601C69.4148 44.256 70.324 43.3946 71.4657 43.3434C71.5409 43.3434 71.6093 43.3433 71.6674 43.3468C71.6947 43.3468 71.7221 43.3433 71.7529 43.3399C72.8638 43.2887 73.8858 44.2013 74.0021 45.3533C74.0328 45.4866 74.0772 45.6267 74.1251 45.7771C74.2242 46.0848 74.2584 46.3753 74.2823 46.6522C74.2892 46.6761 74.296 46.6966 74.3028 46.7206L74.3097 46.7342C74.3541 46.8299 74.3986 46.9325 74.4327 47.0453L74.4464 47.0726C74.4977 47.1752 74.549 47.2743 74.6002 47.37L74.7301 47.6025C74.8087 47.746 74.8908 47.8862 74.9694 48.0332C75.0138 48.1152 75.072 48.1938 75.1266 48.2724C75.195 48.3716 75.2634 48.4707 75.3249 48.5732C75.3693 48.6484 75.4172 48.7202 75.4616 48.792C75.5403 48.9185 75.6189 49.0415 75.6907 49.168C75.7214 49.2227 75.7522 49.2842 75.7864 49.3423C75.8035 49.3731 75.8171 49.4073 75.8376 49.4381C75.8376 49.4415 75.8411 49.4449 75.8445 49.4483C76.0086 49.6568 76.1658 49.8722 76.323 50.0875C76.3504 50.1217 76.3846 50.1593 76.4187 50.2037C76.4461 50.2379 76.4768 50.2687 76.5076 50.2995L76.6478 50.4362C76.911 50.696 77.1844 50.966 77.4442 51.2873L77.6014 51.4856C77.8031 51.7385 77.998 51.9778 78.1996 52.1795C78.3124 52.2889 78.4321 52.3948 78.5517 52.4974L78.6816 52.6033L78.9311 52.7708C79.1807 52.9417 79.437 53.1332 79.6934 53.3417L79.8643 53.4818C79.8917 53.5023 79.919 53.5228 79.9464 53.5434C80.0762 53.6391 80.213 53.7245 80.3497 53.81L80.4762 53.8886C80.5343 53.9262 80.5924 53.9638 80.6573 53.998C81.0744 54.1279 81.4094 54.2099 81.7238 54.2612C82.7015 54.4184 83.3236 55.3208 83.433 56.131C83.556 57.0402 83.1151 57.9358 82.3357 58.3596C82.0281 58.5271 81.7238 58.6639 81.4264 58.7938C81.2419 58.8758 81.0539 58.9578 80.8727 59.0501C80.4728 59.2484 80.0489 59.4808 79.6182 59.7406C79.5738 59.768 79.5293 59.7953 79.4849 59.8261C79.4849 59.8261 79.4815 59.8261 79.4746 59.8329L79.3584 59.932C79.1021 60.1474 78.8423 60.3525 78.6201 60.52C78.6201 60.52 78.5893 60.5439 78.5859 60.5439L78.3364 60.7456L77.8612 61.1558C77.2528 61.6787 76.6136 62.2428 76.1043 62.8786L75.8205 63.258C75.636 63.5075 75.4445 63.7502 75.2531 63.9963L75.1472 64.133C75.0754 64.2288 75.0104 64.3142 74.9489 64.3997C74.8361 64.5569 74.7336 64.7278 74.6413 64.8919C74.4943 65.1448 74.3405 65.3704 74.19 65.5926C74.0807 65.7533 73.9679 65.9174 73.8653 66.0849C73.8106 66.1737 73.7594 66.2626 73.7081 66.3549C73.65 66.454 73.5953 66.5532 73.5338 66.6523L73.5269 66.6694C73.5098 66.7036 73.4893 66.7343 73.4722 66.7651C73.4244 66.8779 73.3663 67.0009 73.2671 67.1377C72.5766 68.1084 71.4008 68.4127 70.3445 67.8965C69.8284 67.6436 69.425 67.1616 69.2097 66.5395C69.1687 66.4677 69.1242 66.3959 69.0866 66.3207L69.0148 66.1942C68.7072 65.6576 68.3859 65.1038 68.1329 64.4817L68.0885 64.3723C68.0475 64.2869 68.0133 64.2185 67.9757 64.1501C67.8732 63.9621 67.7638 63.7844 67.651 63.6032L67.5894 63.5041C67.4493 63.2785 67.3126 63.0597 67.1724 62.8512C67.0938 64.3689 66.9912 65.767 66.8614 67.0796C66.8101 67.6094 66.7349 68.1084 66.6563 68.6178C66.0307 72.6615 63.9764 74.5245 59.9976 74.6612C58.1278 74.7261 56.1999 74.856 54.337 74.9825C51.5682 75.1705 48.714 75.3619 45.8324 75.3619V75.3688ZM42.421 73.2939C43.3644 73.2939 44.1951 73.3007 44.9573 73.311C48.0645 73.3588 51.1819 73.1469 54.1934 72.9418C56.0768 72.8154 58.0218 72.682 59.9258 72.6171C62.9201 72.5145 64.1541 71.3865 64.6292 68.3067C64.7045 67.8281 64.7728 67.3599 64.8207 66.8847C65.0087 64.9568 65.1386 62.8341 65.224 60.4003C65.2377 60.0004 65.4804 59.6483 65.8496 59.4911C66.2187 59.3373 66.6426 59.409 66.9366 59.6757C67.0699 59.7953 67.1998 59.9149 67.3297 60.0346L67.7262 60.3969C67.88 60.5371 68.0338 60.6772 68.1774 60.8276C68.2731 60.9267 68.3654 61.0259 68.4508 61.1318C68.4713 61.1558 68.4919 61.1831 68.5124 61.2105C68.5226 61.2207 68.5329 61.231 68.5397 61.2446C68.5568 61.2651 68.5773 61.2891 68.591 61.313C68.8542 61.6753 69.0935 62.0548 69.3225 62.4239L69.384 62.5231C69.5037 62.7145 69.6438 62.9401 69.7703 63.1759C69.825 63.2751 69.8762 63.3776 69.9241 63.4802C69.9343 63.5007 69.9549 63.5485 69.9651 63.5725L70.0232 63.7126C70.2249 64.2048 70.4984 64.6765 70.7855 65.1756L70.8709 65.3226C70.8709 65.3226 70.8846 65.3431 70.888 65.3568C70.9872 65.4696 71.0658 65.6131 71.1171 65.7909C71.1171 65.7977 71.1171 65.8011 71.1205 65.808L71.1273 65.8353L71.141 65.8832C71.1752 65.9823 71.2264 66.0507 71.2469 66.0643C71.37 66.1259 71.452 66.1293 71.5614 65.9891C71.5238 65.9208 71.4896 65.8422 71.4589 65.7499C71.452 65.7294 71.4418 65.7054 71.4384 65.6918C71.2846 65.1859 71.5375 64.6458 72.0263 64.4441C72.1904 64.3757 72.3681 64.3552 72.5322 64.3723C72.6484 64.2014 72.7612 64.0339 72.8569 63.8733C72.9697 63.6818 73.1031 63.4528 73.2603 63.2306C73.315 63.1554 73.3697 63.0802 73.4244 63.005C73.4415 62.9777 73.462 62.9538 73.4791 62.9298C73.4859 62.9196 73.503 62.8991 73.503 62.8956C73.5098 62.8854 73.5167 62.8786 73.5269 62.8683L73.6226 62.7452C73.8038 62.5128 73.985 62.2769 74.1627 62.0411L74.4601 61.6411C74.4601 61.6411 74.4703 61.6275 74.4772 61.6172C74.4772 61.6172 74.4806 61.6104 74.484 61.607C75.1061 60.8344 75.824 60.1952 76.511 59.6073L76.9964 59.1903C77.0306 59.1595 77.0682 59.1322 77.1024 59.1014C77.1331 59.0741 77.1639 59.0467 77.1947 59.0228C77.2118 59.0091 77.2289 58.9954 77.2425 58.9852L77.3382 58.9134C77.5809 58.7288 77.8065 58.5545 78.0219 58.3699L78.1449 58.2674C78.1655 58.2503 78.2167 58.2092 78.2372 58.1956L78.3056 58.1477C78.3808 58.0964 78.4594 58.0452 78.5415 57.9973C79.0234 57.7068 79.4951 57.447 79.9498 57.2248C80.1583 57.1222 80.3668 57.03 80.5787 56.9342C80.8488 56.8146 81.1051 56.7018 81.341 56.5719C81.3615 56.5582 81.3957 56.4796 81.3854 56.4181C81.382 56.3839 81.3512 56.3224 81.3205 56.2882C80.9 56.2164 80.4728 56.1104 79.9429 55.943C79.8951 55.9293 79.8506 55.9088 79.8062 55.8883C79.7515 55.8609 79.7002 55.837 79.6524 55.8096C79.5533 55.755 79.4576 55.6934 79.3584 55.6353L79.2354 55.5567C79.0747 55.4576 78.9175 55.355 78.7636 55.2456C78.7158 55.2149 78.6645 55.1773 78.6167 55.1397C78.6167 55.1397 78.6167 55.1397 78.6132 55.1363C78.5756 55.1089 78.538 55.0781 78.5039 55.044L78.3808 54.9414C78.1757 54.7739 77.9672 54.6167 77.7655 54.4799L77.4032 54.2338C77.3758 54.2133 77.3314 54.1826 77.3075 54.1586L77.1913 54.0561C77.0443 53.9262 76.9007 53.7997 76.7606 53.663C76.4666 53.3759 76.2239 53.0751 75.9915 52.7811L75.8445 52.5965C75.6565 52.3641 75.4343 52.1453 75.1984 51.9129L75.0549 51.7693C74.9933 51.7078 74.9352 51.6428 74.8737 51.5779L74.8464 51.5471C74.8464 51.5471 74.8429 51.5437 74.8395 51.5403C74.8327 51.5334 74.8224 51.5232 74.8156 51.5163C74.7677 51.4651 74.7267 51.4138 74.6891 51.3591C74.6891 51.3557 74.6823 51.3523 74.6823 51.3489C74.5079 51.1096 74.3439 50.884 74.1695 50.6652C74.1217 50.6037 74.0807 50.5387 74.0465 50.4704C74.0123 50.4088 73.985 50.3576 73.9576 50.3029C73.9405 50.2687 73.9234 50.2379 73.9063 50.2037C73.8448 50.0978 73.7833 49.9986 73.7183 49.8995C73.6636 49.8141 73.6124 49.7286 73.5611 49.6432C73.5201 49.5782 73.4756 49.5133 73.4312 49.4483C73.3457 49.3253 73.2466 49.1817 73.1577 49.0176C73.086 48.8809 73.0108 48.751 72.9356 48.6177L72.8022 48.3784C72.7305 48.2519 72.6621 48.122 72.6006 47.9921C72.5766 47.9443 72.5493 47.8896 72.5254 47.8349C72.5254 47.8281 72.5185 47.8212 72.5151 47.811C72.4878 47.7529 72.4707 47.6913 72.4536 47.6298C72.4467 47.6093 72.4365 47.5922 72.4297 47.5751C72.3955 47.4999 72.3716 47.4384 72.3647 47.411C72.3271 47.2982 72.2963 47.1889 72.269 47.0761C72.2553 47.0214 72.2485 46.9667 72.2417 46.912C72.228 46.7171 72.2109 46.5428 72.1699 46.4095C72.1049 46.2078 72.0331 45.9822 71.9819 45.7395C71.9716 45.6883 71.9648 45.6336 71.9614 45.5823C71.9579 45.5037 71.8862 45.4216 71.8486 45.4045H71.8212C71.7323 45.4216 71.64 45.4216 71.5512 45.408H71.5341C71.476 45.4148 71.3563 45.449 71.3495 45.5789C71.3495 45.6336 71.3392 45.6883 71.329 45.7429C71.2777 45.9754 71.2128 46.1839 71.141 46.4163C71.1 46.5462 71.0829 46.7206 71.0692 46.9017C71.0658 46.9496 71.0589 46.9974 71.0487 47.0419C71.0213 47.1581 70.9906 47.2777 70.9496 47.4042C70.9291 47.558 70.8744 47.7187 70.7718 47.8759L70.765 47.8862C70.7171 47.9887 70.6658 48.0913 70.6112 48.1904L70.577 48.2588C70.3685 48.6587 70.1531 49.0723 69.8762 49.4688C69.6882 49.7389 69.5002 50.0499 69.3157 50.3917C69.302 50.4157 69.2849 50.4464 69.2678 50.4772C69.2336 50.5524 69.1926 50.6208 69.1413 50.6857C69.0524 50.7985 68.9636 50.9079 68.8781 51.0241C68.8371 51.0788 68.7961 51.1369 68.7551 51.195L68.6183 51.383C68.5739 51.4446 68.5226 51.5027 68.4645 51.5505C68.4167 51.5984 68.338 51.6873 68.2731 51.759C68.1876 51.8513 68.1158 51.9265 68.0953 51.947C67.9689 52.0667 67.8287 52.2034 67.6988 52.3504C67.5587 52.5111 67.4254 52.682 67.2921 52.8495L67.2066 52.9588C66.9331 53.3007 66.4751 53.434 66.0615 53.2836C65.6479 53.1366 65.3744 52.7435 65.3813 52.306C65.4086 49.8995 65.4462 47.3393 65.559 44.8132L65.5658 44.6457C65.8154 39.1218 66.0717 33.4134 65.0429 27.7562C64.4515 24.5157 62.9065 22.3896 60.4453 21.4325C56.781 20.0105 50.7307 19.7131 46.2973 19.7131C44.0925 19.7131 42.3697 19.7883 41.8809 19.8259C37.6286 20.1506 32.6243 20.6429 27.7226 21.8632C25.7469 22.3554 24.2975 23.1689 23.2891 24.3482C23.0875 24.5875 22.7867 24.7106 22.4722 24.7071C22.1577 24.6969 21.8672 24.5431 21.6826 24.2901L21.5527 24.1158C21.351 23.8492 21.1254 23.5996 20.8895 23.333L20.6469 23.0596C20.6127 23.0185 20.5922 22.9946 20.5717 22.9707C20.5546 22.9502 20.5375 22.9262 20.5238 22.9023L20.3187 22.5981C20.223 22.4545 20.1307 22.311 20.0282 22.1742C19.888 21.9828 19.7957 21.7948 19.7205 21.6444L19.6624 21.5316C19.618 21.4496 19.5701 21.3675 19.5257 21.2855C19.4676 21.1864 19.4095 21.0838 19.3548 20.9813C19.3172 20.9095 19.2727 20.8411 19.2283 20.7693C19.1462 20.6394 19.0642 20.5061 18.9924 20.366L18.9172 20.219C18.8318 20.0481 18.7463 19.8806 18.6609 19.7131C18.6027 19.6003 18.5446 19.4807 18.4899 19.3644C18.4797 19.3405 18.4694 19.3166 18.4592 19.2927L18.4455 19.2585C18.4284 19.2209 18.425 19.214 18.4113 19.1764C18.3019 18.8859 18.2199 18.6261 18.1618 18.3732C18.1515 18.3253 18.1447 18.2774 18.1379 18.2296L18.131 18.1544C18.1174 17.9801 18.1037 17.8262 18.0729 17.7134L18.0592 17.6656C18.0011 17.4639 17.9464 17.2588 17.902 17.0537C17.8883 16.9922 17.8815 16.9341 17.8815 16.8726C17.8815 16.7974 17.8063 16.7119 17.7653 16.6948C17.755 16.6948 17.7414 16.6948 17.7311 16.6982C17.6491 16.7085 17.5704 16.7085 17.4884 16.6982C17.4884 16.6982 17.4782 16.6982 17.4679 16.6982C17.3893 16.7119 17.2867 16.7563 17.2833 16.876C17.2833 16.9375 17.2731 16.999 17.2628 17.0571C17.2184 17.2793 17.1603 17.481 17.1021 17.6793L17.0885 17.7237C17.0577 17.8365 17.044 17.9903 17.0304 18.1681L17.0235 18.2433C17.0201 18.2911 17.0133 18.339 16.9996 18.3868C16.9552 18.5851 16.8936 18.7868 16.8184 19.0055C16.8116 19.0226 16.7979 19.0568 16.7774 19.1047C16.7603 19.1696 16.7364 19.2346 16.7056 19.3029C16.6851 19.3576 16.6612 19.4123 16.6338 19.4602L16.545 19.6482C16.3672 20.0242 16.1792 20.4104 15.9434 20.7864C15.769 21.0633 15.5913 21.3812 15.4238 21.7299C15.2495 22.0888 15.017 22.4135 14.8119 22.6972C14.7607 22.769 14.7128 22.8374 14.6615 22.9057L14.6103 22.9775C14.5829 23.0151 14.5521 23.0493 14.5214 23.0835C14.4975 23.1108 14.4735 23.1348 14.4496 23.1621C14.412 23.2065 14.371 23.2476 14.3334 23.292C14.2001 23.4321 14.0804 23.5552 13.9813 23.6817C13.8241 23.8765 13.6634 24.0884 13.4891 24.3311L13.2361 24.6832C13.2361 24.6832 13.2225 24.7003 13.219 24.7071C13.1575 24.7926 13.0926 24.8644 13.0242 24.9259L12.9763 24.9806C12.7986 25.1754 12.6174 25.3737 12.4089 25.572C12.3474 25.6472 12.2722 25.7155 12.1867 25.7736C12.1525 25.801 12.1184 25.8283 12.0842 25.8488C11.944 25.9514 11.821 26.0505 11.6945 26.1462C11.5509 26.2556 11.4108 26.3855 11.2604 26.5222C11.1613 26.6111 11.0621 26.6966 10.963 26.7786C10.963 26.7786 10.9596 26.782 10.9562 26.7854C10.922 26.8128 10.8878 26.8401 10.8536 26.8606C10.8399 26.8709 10.8297 26.8777 10.8229 26.8846L10.7135 26.9632C10.5631 27.0691 10.3956 27.1888 10.2076 27.3016C10.1597 27.3289 10.1119 27.3563 10.064 27.3802L10.0298 27.3973C9.98197 27.4246 9.93069 27.4451 9.87942 27.4622L9.79054 27.493C9.70509 27.5238 9.61621 27.5545 9.52734 27.5819C9.27097 27.6605 9.00093 27.722 8.6762 27.7801C8.64544 27.8109 8.61125 27.8758 8.60784 27.91C8.59758 27.9818 8.62835 28.0502 8.68987 28.0878C8.90522 28.2177 9.1445 28.3339 9.40087 28.4569C9.55127 28.5287 9.70167 28.6039 9.85207 28.6791C10.2418 28.8808 10.6109 29.1064 10.9664 29.3252L11.1168 29.4175C11.1168 29.4175 11.1442 29.4346 11.1647 29.4482C11.257 29.4927 11.3527 29.5542 11.4484 29.6362C11.4484 29.6362 11.4518 29.6362 11.4552 29.6431C11.4552 29.6431 11.4621 29.6499 11.4655 29.6499C11.4655 29.6499 11.4792 29.6602 11.4826 29.6636C11.4894 29.6704 11.4962 29.6738 11.5031 29.6807L11.5646 29.7319C11.633 29.7935 11.7013 29.855 11.7697 29.9131C11.862 29.9952 11.9543 30.0772 12.05 30.1592C12.3987 30.4498 12.7268 30.7369 13.0447 31.0411C13.2498 31.2326 13.4446 31.4308 13.6395 31.6325C13.7625 31.759 13.8822 31.882 14.0086 32.0051C14.1966 32.1897 14.3641 32.3708 14.5145 32.5554C14.5385 32.5862 14.5624 32.6169 14.5863 32.6511C14.6068 32.675 14.6171 32.6921 14.6239 32.7024C14.6991 32.8084 14.7777 32.928 14.8529 33.0442C15.1059 33.4373 15.3281 33.8372 15.5468 34.2269C15.6562 34.4183 15.7656 34.6234 15.8716 34.8354C15.9126 34.9037 15.9468 34.9789 15.9741 35.0644C15.9741 35.0746 15.9844 35.0917 15.9878 35.0986C15.9912 35.1088 15.9981 35.1225 16.0015 35.1328C16.0322 35.2216 16.063 35.3071 16.1006 35.396C16.2886 35.8677 16.5279 36.3257 16.7808 36.8111L16.9415 37.1187C16.9415 37.1187 16.9723 37.1769 16.9962 37.2281L17.0133 37.2623C17.0406 37.3204 17.0645 37.3785 17.0816 37.4401C17.0953 37.4913 17.1124 37.5324 17.1329 37.5836C17.1637 37.6588 17.1979 37.7067 17.2286 37.7238C17.3551 37.7921 17.4405 37.734 17.4918 37.6759C17.4987 37.6554 17.5055 37.6349 17.5158 37.6144C17.4782 37.5426 17.4474 37.464 17.42 37.3717C17.2696 36.859 17.5397 36.3189 18.0387 36.1275C18.1515 36.0864 18.2678 36.0625 18.3806 36.0591C18.4729 35.9087 18.5651 35.7617 18.6506 35.6079C18.7532 35.4199 18.866 35.2319 18.9788 35.0473C19.2249 34.6439 19.7171 34.4594 20.1683 34.6063C20.6195 34.7533 20.9135 35.1874 20.8759 35.6626C20.2435 43.8014 20.223 51.2566 20.8143 58.4622C20.8485 58.8826 20.6229 59.2791 20.2435 59.4672C19.8641 59.6552 19.4129 59.5902 19.1018 59.3031C18.9993 59.2074 18.8796 59.098 18.76 58.9647C18.6711 58.8655 18.5857 58.7596 18.5002 58.6536C18.3908 58.5169 18.2849 58.3904 18.1857 58.2947L18.1515 58.2605C18.1003 58.2127 18.0456 58.1614 17.9977 58.1101C17.9567 58.0691 17.9191 58.0247 17.8781 57.9768C17.861 57.9563 17.8473 57.9358 17.8302 57.9153C17.7995 57.8708 17.7653 57.823 17.7311 57.7785L17.6149 57.6281C17.6149 57.6281 17.6149 57.6281 17.6149 57.6247C17.6149 57.6213 17.608 57.6179 17.6046 57.6111C17.591 57.594 17.5773 57.5735 17.5636 57.5564C17.5499 57.5393 17.5397 57.5188 17.526 57.5017C17.4713 57.4128 17.3688 57.235 17.3175 57.1462L17.297 57.1086C17.2799 57.0812 17.2525 57.0402 17.2252 56.9958C17.1671 56.9069 17.109 56.818 17.0543 56.7257C16.9654 56.5685 16.8765 56.4113 16.7945 56.254C16.7842 56.2335 16.7501 56.1788 16.7227 56.1275C16.7193 56.1207 16.7159 56.1104 16.709 56.1036C16.6578 56.0045 16.6236 55.9122 16.6031 55.8233C16.5894 55.7857 16.5826 55.7584 16.5757 55.7276C16.5518 55.6422 16.5313 55.5396 16.5313 55.4507C16.5313 55.4131 16.5245 55.3653 16.5108 55.3174L16.4971 55.2696C16.4322 55.1431 16.3946 55.0029 16.3877 54.8525C16.3877 54.8423 16.3843 54.8286 16.3775 54.8149C16.3365 54.8149 16.2989 54.8149 16.2613 54.8149C16.2613 54.8149 16.2544 54.8149 16.251 54.8149C16.2476 54.8149 16.2442 54.8149 16.2442 54.8149C16.2442 54.8149 16.2408 54.8252 16.2373 54.8525C16.2305 55.0064 16.1929 55.1499 16.1245 55.2764L16.1109 55.3174C16.104 55.3516 16.0938 55.4165 16.0869 55.5088C16.0801 55.5977 16.063 55.6866 16.0322 55.772C16.0288 55.7823 16.0254 55.796 16.022 55.8062C15.9741 56.0113 15.8818 56.1651 15.8306 56.2506C15.7417 56.4147 15.6562 56.5719 15.5674 56.7257C15.3144 57.1633 15.1538 57.4401 15.0102 57.6213L14.8837 57.782C14.8564 57.8196 14.8222 57.8674 14.788 57.9153C14.7709 57.9392 14.7504 57.9665 14.7299 57.9905C14.6889 58.0383 14.6547 58.0793 14.6171 58.1204C14.5795 58.1614 14.5282 58.2092 14.4769 58.2605L14.4393 58.2981C14.3368 58.3938 14.2342 58.5237 14.1249 58.6639C14.0394 58.7664 13.9574 58.8724 13.8685 58.9715C13.7454 59.1117 13.6224 59.2279 13.513 59.327L13.4412 59.3954C13.4412 59.3954 13.4173 59.4193 13.4036 59.4296C13.3592 59.4706 13.3113 59.5048 13.2601 59.5355C13.2225 59.5594 13.1712 59.5936 13.1233 59.6278C13.055 59.6757 12.99 59.7304 12.9251 59.7816C12.8294 59.8603 12.7302 59.9389 12.6311 60.0107C12.614 60.0243 12.5969 60.0346 12.5798 60.0448L12.508 60.0893C12.4602 60.12 12.4055 60.1542 12.3542 60.1884L12.3132 60.2123C12.2893 60.2294 12.2414 60.2636 12.1936 60.2944C12.1901 60.2944 12.1833 60.3012 12.1799 60.3012C12.0021 60.4106 11.8381 60.4653 11.6877 60.4858C11.5578 60.52 11.4176 60.5507 11.2604 60.5815C11.3698 60.6362 11.4792 60.684 11.592 60.7353C11.7526 60.8071 11.9372 60.8857 12.1184 60.9883L12.5559 61.2275C12.5935 61.2481 12.6311 61.2686 12.6721 61.2925C12.8909 61.3848 13.0379 61.5284 13.1302 61.6172C13.2054 61.6753 13.2806 61.7334 13.3592 61.7915C13.4173 61.8292 13.4788 61.877 13.5403 61.9317C13.5403 61.9317 13.5438 61.9351 13.5472 61.9385L13.595 61.9796C13.8309 62.1812 14.0531 62.3829 14.2718 62.588L14.3847 62.6905C14.5043 62.7999 14.6855 62.9606 14.8222 63.1794C14.8324 63.1964 14.8427 63.2101 14.8495 63.2272C14.9042 63.3092 14.9555 63.3844 15.0034 63.4597C15.0991 63.6066 15.1914 63.757 15.2836 63.9074C15.3212 63.9724 15.3588 64.0339 15.393 64.0954C15.5332 64.28 15.6015 64.4851 15.6494 64.6321L15.6665 64.6868C15.687 64.7278 15.7075 64.7654 15.728 64.803C15.7759 64.8885 15.8237 64.9739 15.875 65.0594L15.9365 65.1654C15.9536 65.1927 15.9878 65.2508 16.0151 65.2918C16.0527 65.3499 16.0835 65.4115 16.1109 65.473C16.1245 65.5106 16.1382 65.5482 16.1519 65.5858V65.5926C16.1519 65.5926 16.1758 65.596 16.1792 65.596C16.1792 65.596 16.1861 65.5858 16.1963 65.5721C16.2476 65.4901 16.2954 65.4046 16.3399 65.3192C16.4185 65.1722 16.5005 65.0286 16.5928 64.8919C16.6578 64.7962 16.7193 64.6936 16.7808 64.5945C16.8936 64.4133 17.0064 64.2356 17.1295 64.0647L17.2081 63.9587C17.2662 63.8801 17.3209 63.8083 17.3756 63.7399L17.4645 63.6237C17.5465 63.5178 17.6286 63.4084 17.7106 63.2956C17.714 63.2887 17.7208 63.2819 17.7243 63.2751C17.7311 63.2648 17.7414 63.2546 17.7448 63.2477L17.7824 63.1999C17.8473 63.1212 17.9054 63.0529 17.967 62.9845C18.1037 62.8341 18.2438 62.7076 18.3737 62.5914C18.4558 62.5196 18.5344 62.4478 18.6164 62.3727C18.7634 62.2393 18.907 62.1094 19.0574 61.9796L19.136 61.9078C19.177 61.8702 19.2214 61.836 19.2693 61.8086C19.3411 61.754 19.3924 61.7129 19.4436 61.6719L19.5291 61.6035C19.8196 61.3677 20.2162 61.313 20.5614 61.4531C20.9066 61.5967 21.1493 61.9146 21.1904 62.2838C21.3578 63.7434 21.5527 65.2064 21.7715 66.6386C22.1475 69.0963 22.4585 70.6653 23.5865 71.6942C24.7111 72.7231 26.3826 72.9076 28.8028 73.0717C28.9258 73.0786 29.0523 73.0888 29.1753 73.1025C29.336 73.1162 29.4967 73.1298 29.6573 73.1401C32.2483 73.3007 34.8496 73.3247 36.8253 73.3247C37.7654 73.3247 38.702 73.3213 39.6386 73.3144C40.5717 73.3076 41.5049 73.3042 42.4381 73.3042L42.421 73.2939ZM71.4862 65.7806C71.4965 65.8148 71.5102 65.849 71.5238 65.8729L71.6537 65.8046L71.6811 65.7328H71.6879C71.6879 65.7328 71.7016 65.7088 71.7084 65.6986L71.4896 65.7806H71.4862ZM71.0487 65.62C71.0726 65.661 71.0897 65.702 71.1068 65.7464C71.0931 65.6986 71.076 65.6542 71.0555 65.6166H71.0487V65.62ZM71.6537 64.8851C71.4452 65.1653 71.4247 65.4867 71.4691 65.7054L71.7494 65.6234C71.7836 65.5687 71.8178 65.5208 71.852 65.473C71.8793 65.4286 71.9033 65.3841 71.9272 65.3397C71.9614 65.2816 71.9955 65.2235 72.0297 65.1619L71.6537 64.8782V64.8851ZM15.6323 64.6492C15.6323 64.6492 15.6323 64.656 15.6357 64.656C15.6357 64.656 15.6357 64.6492 15.6323 64.6492ZM19.3172 61.7642C19.3172 61.7642 19.2864 61.7779 19.2625 61.795C19.2796 61.7847 19.2966 61.7745 19.3172 61.7642ZM68.4474 61.1489C68.4679 61.166 68.485 61.1865 68.5055 61.207C68.5055 61.207 68.4645 61.166 68.4474 61.1489ZM68.4474 51.5608C68.4167 51.5881 68.3825 51.6121 68.3449 51.636C68.3654 51.6223 68.403 51.5984 68.4474 51.5608ZM74.0294 50.4054C74.0294 50.4054 74.0396 50.4362 74.0533 50.4601C74.0465 50.443 74.0362 50.4259 74.0294 50.4054ZM70.7855 47.8315C70.7855 47.8315 70.7855 47.8383 70.7821 47.8417C70.7821 47.8383 70.7821 47.8349 70.7855 47.8315ZM17.6183 36.5103C17.3141 36.8966 17.3893 37.3409 17.4713 37.5221L17.5568 37.4811C17.5875 37.4093 17.6251 37.3375 17.6627 37.2623C17.6935 37.2042 17.7311 37.1495 17.7687 37.0982C17.7858 37.0641 17.8029 37.0299 17.82 36.9957C17.861 36.9205 17.8986 36.8419 17.9396 36.7667L17.6115 36.5103H17.6183ZM9.90335 25.589L10.2828 25.9992L9.80422 25.4489L9.89993 25.5856L9.90335 25.589ZM9.59229 25.2506L9.74611 25.4181L9.60596 25.237C9.60596 25.237 9.59571 25.2472 9.59229 25.2506Z" fill="white"/>
<path d="M17.7102 16.8589C17.7033 17.064 17.7785 17.3067 17.8298 17.4947C17.8811 17.6793 17.9392 17.8297 17.9597 18.0006C17.9802 18.1715 17.9597 18.3048 18.0007 18.4655C18.1443 19.0397 18.3767 19.573 18.6639 20.096C18.763 20.2805 18.8416 20.4788 18.9407 20.6531C19.0399 20.8275 19.1527 20.971 19.2381 21.1454C19.3202 21.3163 19.4056 21.4359 19.5013 21.6102C19.6004 21.7811 19.662 21.9794 19.7953 22.1503C20.0311 22.458 20.2294 22.8169 20.4721 23.1245C20.6328 23.3262 20.8344 23.5074 21.0053 23.7022C21.4326 24.1876 21.7642 24.7653 22.2086 25.2301C22.4513 25.4865 22.711 25.7429 22.9777 25.9377C23.2443 26.1326 23.4494 26.2795 23.675 26.4915C23.904 26.7034 24.174 26.929 24.4236 27.0965C24.6731 27.2674 24.8543 27.4178 25.1243 27.5374C25.5379 27.7186 25.9823 27.8348 26.4301 27.9135C25.8934 28.2416 25.2747 28.4672 24.7517 28.809C24.4407 29.0107 24.0886 29.1919 23.8015 29.3935C23.5143 29.5952 23.2853 29.8413 23.046 30.0498C22.8067 30.2584 22.6256 30.3951 22.4 30.607C22.1744 30.819 21.8941 31.0856 21.6719 31.2941C21.4497 31.5026 21.3164 31.6769 21.1011 31.8752C20.8857 32.0734 20.6704 32.3059 20.4824 32.5349C20.12 32.9793 19.7816 33.5228 19.4637 33.974C19.1458 34.4252 18.8245 34.8593 18.5955 35.3139C18.3665 35.7686 18.1033 36.1309 17.8708 36.5445C17.7717 36.7188 17.6726 36.9239 17.6008 37.0572C17.529 37.1905 17.5153 37.2042 17.4641 37.3068C17.4128 37.4093 17.4059 37.4948 17.3342 37.5871L17.2966 37.5665C17.235 37.4743 17.2453 37.399 17.2077 37.2931C17.1701 37.1871 17.153 37.17 17.0812 37.0333C17.006 36.8966 16.8795 36.647 16.7872 36.4727C16.5719 36.0591 16.3634 35.6831 16.2061 35.2319C16.0489 34.7773 15.8267 34.3876 15.5703 33.9364C15.314 33.4852 15.0132 32.9451 14.6748 32.5076C14.5004 32.2785 14.2817 32.0393 14.0697 31.841C13.8612 31.6427 13.7279 31.4616 13.5092 31.2565C13.2904 31.0514 13.0101 30.7848 12.7845 30.5763C12.5589 30.3677 12.3811 30.2344 12.1384 30.0328C11.8958 29.8311 11.6701 29.5918 11.383 29.3935C11.0959 29.1953 10.7438 29.0175 10.4362 28.8193C9.91317 28.4809 9.29447 28.2621 8.76123 27.934C9.20902 27.8553 9.65339 27.7425 10.067 27.5614C10.3405 27.4417 10.5182 27.2913 10.7677 27.1238C11.0173 26.9529 11.2873 26.7307 11.5129 26.5154C11.7385 26.3 11.9402 26.1531 12.2068 25.9582C12.4734 25.7634 12.7298 25.5036 12.9725 25.2472C13.4134 24.7789 13.7382 24.2013 14.1655 23.7124C14.3364 23.5176 14.538 23.3364 14.6953 23.1348C14.938 22.8237 15.1362 22.4648 15.3687 22.1571C15.4986 21.9828 15.5635 21.788 15.6592 21.6171C15.7549 21.4462 15.8404 21.3231 15.9224 21.1522C16.0045 20.9779 16.1173 20.8343 16.2164 20.66C16.3155 20.4856 16.3941 20.2874 16.4933 20.1028C16.777 19.5798 17.0128 19.0431 17.153 18.4723C17.194 18.3116 17.1735 18.1783 17.194 18.0074C17.2145 17.8365 17.2726 17.6895 17.3239 17.5015C17.3752 17.3169 17.4504 17.0708 17.4435 16.8657" fill="#FFE26D"/>
<path d="M16.5143 16.8589C16.5211 17.375 16.7296 17.8194 16.8048 18.3185L16.7604 18.0006C16.7878 18.2877 16.7912 18.5748 16.863 18.8586C16.9245 19.0944 17.0031 19.3234 17.092 19.549C17.3005 20.0652 17.5569 20.5506 17.7995 21.0531C17.9978 21.4633 18.2644 21.8393 18.4798 22.2392C18.5721 22.4101 18.6439 22.5878 18.7567 22.7519C18.9002 22.9536 19.0369 23.1587 19.1737 23.3638C19.4642 23.7979 19.8095 24.1568 20.1547 24.5465C20.1957 24.5944 20.2367 24.6422 20.2743 24.6901C20.3085 24.7311 20.3769 24.8644 20.2983 24.714C20.206 24.5431 20.3188 24.7413 20.3393 24.7721C20.3701 24.8131 20.3974 24.8541 20.4282 24.8917C20.5922 25.1139 20.7529 25.3361 20.9238 25.5549C21.2315 25.9514 21.5699 26.3274 21.9561 26.6487C22.1715 26.8299 22.4244 27.0623 22.6739 27.1956C22.6534 27.1854 22.4483 27.0145 22.5987 27.1409C22.6363 27.1717 22.6739 27.2025 22.7081 27.2332C22.8004 27.3153 22.8893 27.4007 22.985 27.4828C23.4089 27.8553 23.884 28.2416 24.3865 28.5048C24.9231 28.7885 25.5145 28.9594 26.1093 29.062L25.8221 26.8743C25.429 27.1102 25.0052 27.2913 24.6018 27.5033C24.1985 27.7152 23.7951 27.9716 23.4054 28.2177C22.9679 28.4911 22.6056 28.8364 22.2227 29.1748C21.9014 29.4585 21.5767 29.7285 21.2656 30.0225C20.5546 30.6959 19.8471 31.3795 19.2591 32.1657C18.9823 32.5349 18.7327 32.928 18.4695 33.3074C18.2063 33.6869 17.9055 34.0868 17.6662 34.5038C17.427 34.9208 17.1603 35.372 16.904 35.8096C16.7741 36.0283 16.6647 36.2574 16.5451 36.4795C16.5075 36.5445 16.4699 36.6094 16.4357 36.6778C16.3981 36.7496 16.3707 36.8282 16.3365 36.9034C16.3058 36.9684 16.2784 37.0367 16.2545 37.1017C16.3468 36.9102 16.3605 36.8692 16.2921 36.9786L17.9294 36.5479L17.8918 36.5274L18.3225 36.9581C18.4558 37.2008 18.408 37.1734 18.3772 37.0572C18.367 37.0196 18.3567 36.982 18.343 36.9478C18.2918 36.8043 18.2302 36.6641 18.1619 36.5308C18.0764 36.3667 17.9876 36.2027 17.9021 36.0386C17.803 35.8472 17.7004 35.6558 17.6013 35.4609C17.5569 35.372 17.509 35.2832 17.468 35.1909C17.4406 35.1328 17.4167 35.0747 17.3894 35.02C17.3518 34.9379 17.3688 34.9755 17.4338 35.1293C17.4201 35.0917 17.4065 35.0576 17.3928 35.02C17.0475 34.1005 16.5827 33.2425 16.0597 32.4153C15.5367 31.5881 14.8564 30.8805 14.1489 30.2139C13.8412 29.9234 13.5336 29.6328 13.202 29.3628C12.8123 29.0415 12.45 28.6894 12.0398 28.3954C11.6296 28.1015 11.1989 27.8622 10.7751 27.6229C10.3102 27.3631 9.81456 27.1649 9.35651 26.8914L9.06938 29.0791C9.63339 28.9799 10.1701 28.8159 10.693 28.5698C11.1477 28.3578 11.5715 28.0092 11.9544 27.6947C12.1184 27.5614 12.2723 27.4144 12.4295 27.2742C12.5115 27.2025 12.597 27.1375 12.679 27.0657C12.3987 27.3084 12.7235 27.0384 12.7987 26.9803C13.2294 26.659 13.6327 26.3 13.978 25.8864C14.1625 25.6643 14.3369 25.4352 14.5078 25.2028C14.5727 25.1105 14.6377 25.0216 14.706 24.9293C14.7436 24.8781 14.7778 24.8268 14.8154 24.7789L14.8599 24.7174C14.9351 24.6149 14.918 24.6354 14.8086 24.7824C14.8701 24.755 14.9522 24.608 15 24.5533C15.0718 24.4713 15.1436 24.3961 15.2188 24.3175C15.4307 24.0953 15.6256 23.8629 15.8067 23.6133C15.94 23.4322 16.0562 23.2407 16.1793 23.0561C16.3024 22.8716 16.4357 22.7075 16.5348 22.5161C16.7365 22.1196 16.9518 21.7333 17.1808 21.3539C17.321 21.1248 17.4235 20.8719 17.55 20.6326C17.6765 20.3933 17.7825 20.1746 17.8816 19.9387C18.0115 19.6311 18.138 19.3269 18.2337 19.0055C18.3294 18.6842 18.3465 18.3424 18.3772 18.0006L18.3328 18.3185C18.408 17.8194 18.6199 17.375 18.6233 16.8623C18.6302 16.2368 18.0696 15.6386 17.427 15.6659C16.7843 15.6933 16.2374 16.1923 16.2306 16.8623C16.2306 16.9102 16.2306 16.958 16.2237 17.0025L16.2682 16.6846C16.234 16.9409 16.152 17.187 16.0802 17.4366C15.9913 17.751 15.9981 18.0758 15.9571 18.3971L16.0016 18.0792C15.9605 18.2775 15.9024 18.4723 15.8341 18.6603C15.8204 18.6979 15.711 18.9201 15.7247 18.9474C15.7042 18.9167 15.8272 18.7116 15.7554 18.8722C15.7247 18.9406 15.6905 19.0124 15.6597 19.0807C15.4751 19.467 15.2871 19.8738 15.0581 20.2361C14.8462 20.5711 14.6548 20.9232 14.4839 21.2787C14.313 21.6342 14.0361 21.9862 13.8036 22.3178C13.7763 22.3588 13.7455 22.3998 13.7182 22.4374C13.6293 22.5639 13.8754 22.2563 13.7695 22.3657C13.7045 22.434 13.643 22.5058 13.5746 22.5776C13.431 22.728 13.2909 22.875 13.161 23.0356C12.9798 23.2612 12.8055 23.4937 12.638 23.7261C12.5799 23.8082 12.5218 23.8902 12.4637 23.9688C12.4329 24.0098 12.4056 24.0509 12.3748 24.0885C12.2688 24.232 12.3304 24.1329 12.4022 24.0543C12.1082 24.3687 11.8416 24.6866 11.5168 24.9704C11.4553 25.025 11.3493 25.0661 11.5886 24.9157C11.5442 24.943 11.5032 24.9806 11.4621 25.0114C11.322 25.1173 11.1818 25.2233 11.0417 25.3327C10.8674 25.466 10.7067 25.613 10.5461 25.76C10.464 25.8352 10.3786 25.9104 10.2897 25.9822C10.2521 26.0129 10.1325 26.1257 10.2623 26.0061C10.4025 25.8762 10.2453 26.0163 10.2077 26.0437C10.0299 26.1702 9.85216 26.3 9.66757 26.4094C9.6163 26.4402 9.56502 26.4641 9.51717 26.4915C9.336 26.5906 9.69492 26.4299 9.55477 26.4778C9.44197 26.5154 9.32917 26.5598 9.21637 26.594C8.96 26.6726 8.69679 26.7273 8.43359 26.7752C7.97555 26.8572 7.63372 27.3426 7.57561 27.7699C7.51067 28.245 7.73285 28.7133 8.14646 28.9629C8.53955 29.1987 8.96 29.3765 9.36335 29.5884C9.7667 29.8003 10.1666 30.0499 10.5597 30.2891C10.6042 30.3165 10.7853 30.4703 10.8298 30.4669C10.8161 30.4669 10.6042 30.2789 10.7614 30.4156C10.799 30.4464 10.8332 30.4771 10.8708 30.5079C11.0383 30.6549 11.1989 30.8053 11.3699 30.9488C11.6946 31.2189 12.0091 31.4958 12.3201 31.7863C12.6449 32.094 12.9491 32.4221 13.267 32.7366C13.4208 32.887 13.5678 33.0442 13.7045 33.2083C13.7353 33.2459 13.8481 33.3655 13.725 33.2322C13.5883 33.0818 13.7421 33.2596 13.7626 33.2869C13.8344 33.3895 13.9028 33.492 13.9711 33.598C14.2104 33.974 14.4292 34.3637 14.6479 34.7499C14.7539 34.9379 14.8564 35.1259 14.9487 35.3208C14.9693 35.3618 14.9932 35.4609 15.0274 35.4883C15.0103 35.4746 14.9214 35.2148 14.9932 35.4096C15.0376 35.5327 15.0821 35.6523 15.1299 35.772C15.3418 36.3052 15.605 36.8043 15.8717 37.3102C15.9195 37.4059 15.9708 37.4982 16.0221 37.5939C16.0494 37.6452 16.1998 37.9528 16.0973 37.7135C16.0118 37.5119 16.0631 37.6417 16.0802 37.6999C16.1075 37.799 16.1349 37.8776 16.1759 37.9733C16.2887 38.2434 16.463 38.4758 16.7296 38.6194C17.3176 38.9373 18.0046 38.7493 18.367 38.1887C18.3909 38.1511 18.408 38.1203 18.4285 38.0793C18.2781 38.3664 18.6883 37.464 18.5345 37.8229C18.449 38.0212 18.555 37.799 18.5755 37.758C18.6746 37.5768 18.7669 37.3922 18.8626 37.2111C19.0711 36.8282 19.3241 36.4693 19.5326 36.0899C19.9804 35.2729 20.5239 34.5209 21.0537 33.7552C21.1118 33.6698 21.1733 33.5843 21.2349 33.4988C21.2725 33.4476 21.3101 33.3963 21.3511 33.3416C21.4434 33.2151 21.2041 33.5228 21.3032 33.4031C21.4571 33.2186 21.6143 33.0374 21.7852 32.8699C22.086 32.5691 22.38 32.2614 22.691 31.9675C23.0021 31.6735 23.2926 31.3898 23.614 31.1232C23.7678 30.9933 23.9216 30.8634 24.0686 30.7267C24.1472 30.6549 24.2224 30.5797 24.3044 30.5113C24.342 30.4805 24.3762 30.4464 24.4138 30.4156C24.6052 30.2447 24.1882 30.5626 24.4036 30.4224C24.8172 30.1524 25.2445 29.8824 25.6786 29.6431C26.1127 29.4038 26.5947 29.2021 27.0322 28.9423C27.4458 28.6962 27.668 28.2245 27.603 27.7494C27.5449 27.3187 27.2065 26.8367 26.7451 26.7547C26.5468 26.7205 26.3451 26.6795 26.1503 26.6282C26.0409 26.5974 25.9315 26.5667 25.8256 26.5291C25.7777 26.512 25.7298 26.4949 25.682 26.4778C25.6478 26.4641 25.6102 26.4505 25.576 26.4368L25.723 26.4983C25.5794 26.3923 25.4017 26.324 25.2547 26.2214C25.1761 26.1667 25.1009 26.112 25.0223 26.0574C24.9847 26.03 24.9437 26.0027 24.9061 25.9753C24.7044 25.8386 25.0906 26.1291 24.9129 25.9822C24.53 25.6677 24.1677 25.3327 23.7678 25.0353C23.7268 25.0045 23.6857 24.9738 23.6447 24.943C23.4704 24.8165 23.6892 24.9738 23.7063 24.9943C23.6413 24.9225 23.5524 24.8678 23.4807 24.7994C23.3132 24.6456 23.1525 24.485 22.9987 24.3175C22.9303 24.2457 22.8688 24.1671 22.8038 24.0919C22.7321 24.0064 22.7799 23.9791 22.8517 24.1568C22.838 24.1226 22.7833 24.0645 22.7628 24.0372C22.6295 23.856 22.4996 23.6714 22.3629 23.4937C22.0621 23.0937 21.7339 22.7485 21.4058 22.3759C21.375 22.3417 21.3477 22.2973 21.3135 22.2665C21.334 22.2836 21.4776 22.4956 21.3682 22.3315C21.3135 22.2494 21.2554 22.1674 21.2007 22.0854C21.0845 21.911 20.9682 21.7367 20.8452 21.5658C20.7221 21.3949 20.6538 21.2308 20.5615 21.0531C20.4624 20.8651 20.3495 20.6873 20.2504 20.4993C20.141 20.2942 20.0043 20.113 19.8983 19.9045C19.789 19.6858 19.6762 19.4636 19.5668 19.2448C19.5155 19.1423 19.4642 19.0397 19.4164 18.9338C19.4164 18.9338 19.3651 18.797 19.3548 18.7936C19.4266 18.9611 19.4369 18.9884 19.389 18.8688L19.3617 18.797C19.2728 18.5612 19.1908 18.3185 19.1395 18.0724L19.1839 18.3903C19.1429 18.0689 19.1497 17.7442 19.0609 17.4297C18.9891 17.1802 18.9071 16.9341 18.8729 16.6777L18.9173 16.9956C18.9105 16.9478 18.9105 16.9033 18.9105 16.8555C18.9036 16.2299 18.3636 15.6283 17.7141 15.6591C17.0646 15.6899 16.5109 16.1855 16.5177 16.8555L16.5143 16.8589Z" fill="black"/>
<path d="M45.832 73.1469C45.5414 73.1469 45.2509 73.1469 44.9603 73.1401C44.1126 73.1264 43.2649 73.123 42.4172 73.123C41.484 73.123 40.5508 73.1264 39.6176 73.1333C38.6811 73.1367 37.7445 73.1435 36.8079 73.1435C34.8355 73.1435 32.2377 73.123 29.6501 72.9624C29.4928 72.9521 29.3356 72.9384 29.1749 72.9248C29.0485 72.9145 28.9254 72.9042 28.7989 72.894C23.5554 72.5385 22.7179 71.7728 21.9249 66.6044C20.1679 55.1602 20.0893 42.8375 21.6788 28.9321C22.1197 25.0934 23.9929 22.9639 27.753 22.0273C32.641 20.8104 37.6385 20.3181 41.8839 19.9934C42.1984 19.9695 43.8699 19.8806 46.2866 19.8806C50.703 19.8806 56.7362 20.178 60.3732 21.5897C62.8104 22.5332 64.2768 24.5602 64.8647 27.7836C65.8902 33.4237 65.6338 39.1218 65.3877 44.6355L65.3809 44.803C65.2544 47.6127 65.2202 50.4841 65.1894 53.2631C65.1382 57.7205 65.0869 62.3282 64.6459 66.8745C64.6015 67.3462 64.5331 67.7906 64.4579 68.2862C63.9965 71.2635 62.8069 72.3505 59.9185 72.4496C58.0112 72.5146 56.0662 72.6479 54.1862 72.7744C51.4584 72.9589 48.6384 73.1504 45.832 73.1504V73.1469Z" fill="white"/>
<path d="M46.2905 21.0804C50.4129 21.0804 56.4495 21.3504 59.9429 22.7075C62.257 23.6065 63.2586 25.6301 63.6893 27.9989C64.7011 33.5604 64.4379 39.1594 64.1849 44.7517C63.8534 52.0838 64.1644 59.4398 63.4568 66.7582C63.4124 67.206 63.344 67.6538 63.2757 68.1016C62.9133 70.4465 62.24 71.1712 59.8745 71.2532C55.1881 71.4139 50.5257 71.9505 45.829 71.9505C45.5453 71.9505 45.2582 71.9505 44.9745 71.9437C44.1233 71.93 43.2688 71.9266 42.4176 71.9266C40.5478 71.9266 38.6747 71.9471 36.8049 71.9471C34.4429 71.9471 32.0809 71.9129 29.7223 71.766C29.442 71.7489 29.1583 71.7181 28.878 71.701C24.1677 71.3831 23.8156 71.055 23.1046 66.4233C21.1938 53.9809 21.4365 41.5419 22.8653 29.0688C23.2516 25.6882 24.7659 24.003 28.0405 23.1895C32.6381 22.0443 37.2834 21.5453 41.9732 21.1898C42.3527 21.1624 44.0344 21.0804 46.2871 21.0804M43.344 23.6475C43.5285 23.586 43.7131 23.5313 43.8977 23.4732C43.72 23.4834 43.5456 23.4903 43.3679 23.5005C43.361 23.5484 43.3542 23.5962 43.344 23.6475ZM46.2905 18.6876C44.055 18.6876 42.2946 18.7663 41.7955 18.8039C37.5022 19.1286 32.4432 19.6311 27.4663 20.8685C23.2072 21.9281 20.9921 24.4474 20.4931 28.7988C18.8899 42.8135 18.972 55.2388 20.7426 66.789C21.1425 69.3903 21.5083 71.1917 22.879 72.4462C24.2497 73.7007 26.0819 73.9126 28.7173 74.0904C28.837 74.0972 28.9532 74.1074 29.0728 74.1177C29.2403 74.1314 29.4078 74.145 29.5753 74.1553C32.1971 74.3194 34.8189 74.3399 36.8083 74.3399C37.7483 74.3399 38.6883 74.3331 39.6283 74.3296C40.5581 74.3262 41.4913 74.3194 42.421 74.3194C43.3508 74.3194 44.1848 74.3262 44.9437 74.3365C45.2411 74.3399 45.535 74.3433 45.8324 74.3433C48.6798 74.3433 51.517 74.1519 54.2652 73.9673C56.1384 73.8408 58.0731 73.7109 59.9634 73.646C63.4466 73.5264 65.0942 72.0257 65.6445 68.4708C65.7197 67.9786 65.7915 67.4966 65.8428 66.9907C66.2871 62.3966 66.3418 57.7615 66.3931 53.2767C66.4239 50.5114 66.4581 47.6503 66.5811 44.8576L66.5879 44.6901C66.8409 39.1116 67.1007 33.3416 66.0479 27.5682C65.3881 23.9551 63.6278 21.5658 60.8111 20.4754C56.9998 18.9987 50.8128 18.6876 46.2939 18.6876H46.2905Z" fill="black"/>
<path d="M43.3439 23.6475C43.5422 22.7143 43.0739 22.5058 42.0553 22.5844C37.6116 22.9228 33.2157 23.3946 28.8609 24.4781C25.7605 25.2507 24.3283 26.847 23.9625 30.0464C22.6089 41.8564 22.3799 53.6391 24.1881 65.4183C24.8615 69.8039 25.1931 70.1116 29.6539 70.4158C29.9205 70.4329 30.1871 70.4602 30.4538 70.4773C35.2666 70.7781 40.0829 70.573 44.8958 70.6448C49.6198 70.7132 54.2994 70.1526 59.0063 69.9885C61.2452 69.9099 61.881 69.2262 62.2262 67.0044C62.2912 66.5805 62.3561 66.1567 62.3972 65.7328C63.0705 58.8006 62.7766 51.8377 63.0876 44.8952C63.3269 39.6038 63.5764 34.2987 62.6193 29.0346C62.2092 26.7923 61.2623 24.8747 59.0712 24.0235C53.9541 22.0375 48.7618 21.8324 43.3473 23.6509L43.3439 23.6475Z" fill="#080808"/>
<path d="M59.9461 22.7075C62.2603 23.6065 63.2618 25.6301 63.6925 27.9989C64.7043 33.5604 64.4411 39.1595 64.1882 44.7517C63.8566 52.0838 64.1676 59.4398 63.4601 66.7583C63.4156 67.2061 63.3473 67.6539 63.2789 68.1016C62.9166 70.4466 62.2432 71.1712 59.8778 71.2533C54.9077 71.4242 49.9649 72.0189 44.9777 71.9472C39.8948 71.872 34.805 72.0873 29.7255 71.7694C29.4452 71.7523 29.1615 71.7215 28.8812 71.7045C24.1709 71.3866 23.8188 71.0584 23.1078 66.4267C21.197 53.9878 21.4397 41.5454 22.8686 29.0723C23.2548 25.6916 24.7691 24.0064 28.0438 23.1929C32.6413 22.0478 37.2867 21.5487 41.9765 21.1932C43.0532 21.1112 54.5385 20.6121 59.9427 22.7109L59.9461 22.7075ZM32.108 24.9396C27.8284 25.6096 25.692 28.1459 25.2135 32.364C24.4478 39.0877 24.7657 45.7908 25.316 52.4974C25.5143 54.9244 26.1296 57.218 28.0848 58.8553C29.7973 60.291 31.9679 60.6772 34.0769 60.9986C39.8162 61.8736 45.5793 61.4703 51.3253 61.0054C55.6118 60.6567 58.2473 58.2332 59.5086 54.2134C61.7339 47.1274 61.9731 39.8363 61.1596 32.5657C60.4965 26.6453 57.9191 24.5294 51.9816 23.7466C45.2648 22.8579 38.6745 23.8389 32.108 24.9396Z" fill="white"/>
<path d="M39.0882 44.2834C38.5242 41.9351 39.0165 39.8089 40.4863 37.9118C41.4229 36.7052 42.6671 36.107 44.1882 36.3497C45.6752 36.5855 46.5366 37.6417 47.0596 38.9578C47.9415 41.1762 46.9604 45.0046 45.1522 46.6214C42.797 48.7237 39.9906 47.6435 39.0882 44.2834Z" fill="white"/>
<path d="M41.478 31.3044C41.5292 32.1999 41.2284 32.8528 40.2782 33.0408C39.2971 33.2357 38.5691 32.8426 38.3332 31.8923C38.1247 31.048 38.6374 30.5113 39.4475 30.2721C40.4423 29.9781 41.0541 30.443 41.478 31.3044Z" fill="white"/>
<path d="M47.9517 31.7692C48.1739 32.74 47.7774 33.3177 47.0151 33.598C46.2221 33.8885 45.4769 33.6151 45.2069 32.8289C44.9163 31.988 45.2752 31.2941 46.1982 31.0001C47.0732 30.7198 47.562 31.2155 47.9551 31.7692H47.9517Z" fill="white"/>
<path d="M71.7971 45.5721C71.7903 45.7737 71.8689 46.013 71.9236 46.1976C71.9783 46.3822 72.0432 46.5257 72.0638 46.6932C72.0843 46.8607 72.0638 46.9906 72.1082 47.1479C72.262 47.7119 72.515 48.2383 72.826 48.751C72.9354 48.9322 73.0209 49.127 73.1268 49.2979C73.2328 49.4688 73.3558 49.6124 73.4481 49.7799C73.537 49.9508 73.6293 50.067 73.7353 50.2345C73.8412 50.402 73.9096 50.5969 74.0532 50.7643C74.3061 51.0652 74.5215 51.4172 74.7881 51.7215C74.9624 51.9197 75.1778 52.0975 75.3658 52.2889C75.8306 52.7674 76.1861 53.3349 76.6681 53.7895C76.9313 54.039 77.215 54.2954 77.5022 54.4868C77.7893 54.6782 78.0115 54.8218 78.2576 55.0337C78.5037 55.2422 78.7977 55.4644 79.0677 55.6285C79.3378 55.796 79.5326 55.943 79.8266 56.0626C80.2709 56.2438 80.7529 56.3532 81.2417 56.4318C80.6606 56.7531 79.9906 56.9753 79.4232 57.3137C79.0882 57.5119 78.7054 57.6931 78.3943 57.8879C78.0833 58.0862 77.8372 58.3289 77.5774 58.5306C77.3176 58.7357 77.1227 58.869 76.88 59.0775C76.6374 59.286 76.3297 59.5492 76.0939 59.7509C75.8546 59.956 75.711 60.1269 75.4786 60.3217C75.2461 60.5166 75.0103 60.7422 74.8086 60.9712C74.4189 61.4087 74.0497 61.942 73.7045 62.3863C73.3593 62.8307 73.0106 63.258 72.7645 63.7024C72.5184 64.1501 72.2312 64.5056 71.9783 64.9124C71.8723 65.0833 71.763 65.285 71.6878 65.4149C71.6091 65.5448 71.5955 65.5585 71.5408 65.661C71.4861 65.7601 71.4758 65.8456 71.4006 65.9345L71.363 65.914C71.2947 65.8217 71.3083 65.7499 71.2639 65.6473C71.2195 65.5448 71.2058 65.5277 71.1272 65.3944C71.0485 65.2611 70.9084 65.015 70.8093 64.8441C70.5768 64.4373 70.3512 64.0681 70.1803 63.6237C70.0094 63.176 69.7701 62.7931 69.4932 62.3487C69.213 61.9044 68.8882 61.3745 68.5259 60.9438C68.3379 60.7182 68.0986 60.4858 67.873 60.2875C67.6474 60.0927 67.5004 59.915 67.2646 59.7133C67.0287 59.5116 66.7245 59.2484 66.4818 59.0433C66.2391 58.8382 66.0442 58.7083 65.7845 58.5066C65.5247 58.305 65.2751 58.0725 64.9675 57.8777C64.6599 57.6829 64.277 57.5085 63.942 57.3103C63.378 56.9787 62.7081 56.7599 62.1304 56.4386C62.6158 56.3634 63.0977 56.2506 63.5421 56.0729C63.8361 55.9532 64.0309 55.8062 64.301 55.6422C64.571 55.4747 64.8615 55.2559 65.1077 55.044C65.3538 54.8355 65.5725 54.6885 65.8597 54.4971C66.1468 54.3056 66.4271 54.0493 66.6869 53.7963C67.1654 53.3383 67.5175 52.7674 67.979 52.2889C68.1636 52.0975 68.3789 51.9197 68.5532 51.7215C68.8164 51.4172 69.0284 51.0652 69.2813 50.7609C69.4249 50.59 69.4932 50.3986 69.5958 50.2277C69.7018 50.0568 69.7906 49.9406 69.8795 49.7696C69.9684 49.5987 70.0914 49.4586 70.1974 49.2843C70.3034 49.1133 70.3888 48.9185 70.4982 48.7373C70.8059 48.2246 71.0588 47.6982 71.2126 47.1342C71.2571 46.9769 71.2365 46.8436 71.2571 46.6796C71.2776 46.5121 71.3425 46.3651 71.3972 46.1839C71.4519 46.0028 71.5339 45.7601 71.5271 45.5584" fill="#FFE26D"/>
<path d="M70.6006 45.572C70.6074 46.0882 70.8296 46.5189 70.9116 47.0111L70.8672 46.6932C70.8945 46.9769 70.898 47.2641 70.9766 47.5409C71.0655 47.8588 71.1988 48.1665 71.3321 48.4707C71.5235 48.9082 71.773 49.3184 71.9986 49.7354C72.2242 50.1525 72.5045 50.5011 72.7336 50.8976C72.8805 51.154 73.0139 51.3762 73.2053 51.6155C73.2292 51.6428 73.3933 51.8035 73.2497 51.6702C73.1061 51.5369 73.2668 51.6975 73.2907 51.7283C73.3659 51.8308 73.4377 51.9334 73.5129 52.0359C73.6941 52.2752 73.8718 52.5213 74.0872 52.7332C74.2615 52.9076 74.4495 53.0682 74.6136 53.2494C74.9144 53.5741 75.1708 53.9365 75.4613 54.268C75.8271 54.6919 76.2578 55.0611 76.7055 55.396C76.8833 55.5294 77.0713 55.6456 77.2559 55.7755C77.2935 55.8028 77.3311 55.8302 77.3687 55.8541C77.5669 55.9908 77.1944 55.7071 77.3208 55.8165C77.4268 55.9088 77.5362 55.9942 77.6421 56.0797C78.0933 56.4352 78.5856 56.8146 79.112 57.0573C79.6897 57.3239 80.2913 57.4914 80.9168 57.5906L80.6297 55.4029C80.2127 55.6319 79.7683 55.8062 79.3376 56.0079C78.9069 56.2096 78.5275 56.4386 78.1241 56.6608C77.6524 56.9206 77.2456 57.259 76.8354 57.6008C76.7876 57.6384 76.7397 57.676 76.6919 57.717C76.5551 57.8264 76.9243 57.5393 76.7226 57.6931C76.5859 57.7956 76.4492 57.9016 76.3124 58.0076C76.1244 58.1546 75.9433 58.3084 75.7655 58.4622C75.4305 58.7493 75.1058 59.0433 74.7811 59.3441C74.4564 59.6449 74.1009 59.9491 73.8035 60.3046C73.448 60.7285 73.1198 61.1797 72.7883 61.6241C72.6686 61.7847 72.8361 61.5694 72.8464 61.5523C72.8156 61.6104 72.7575 61.6651 72.7165 61.7164C72.5934 61.8736 72.4704 62.0308 72.3507 62.1881C72.1866 62.4034 72.0226 62.6188 71.879 62.8444C71.5953 63.2819 71.3218 63.7229 71.0347 64.1604C70.8945 64.3757 70.7715 64.6013 70.6416 64.8201C70.6006 64.8885 70.5596 64.9534 70.5185 65.0218C70.4741 65.1004 70.4399 65.1824 70.4057 65.2679C70.3784 65.3328 70.351 65.4012 70.3237 65.4662C70.416 65.2747 70.4262 65.2337 70.3545 65.3397L71.9918 64.909L71.9542 64.8885L72.3849 65.3192C72.5148 65.5345 72.4704 65.5448 72.4362 65.4217C72.3986 65.2918 72.3473 65.179 72.2892 65.0491C72.2653 64.9979 72.2413 64.9466 72.214 64.8987C72.1114 64.7176 72.0021 64.5364 71.8961 64.3552C71.7901 64.1741 71.6876 63.9963 71.585 63.8151C71.5303 63.716 71.4756 63.6169 71.4244 63.5178C71.4004 63.4733 71.3799 63.4289 71.356 63.381C71.3355 63.3366 71.3116 63.2887 71.2911 63.2409L71.3492 63.3845C71.4278 63.3537 70.686 62.0308 70.5972 61.8873C70.3613 61.5078 70.1254 61.125 69.8622 60.7592C69.2777 59.9423 68.5462 59.2586 67.784 58.6058C67.3909 58.2708 66.9943 57.946 66.5807 57.6384C66.55 57.6145 66.4645 57.5256 66.4303 57.5256C66.444 57.5256 66.6525 57.7034 66.4987 57.5769C66.4167 57.5085 66.3312 57.4401 66.2492 57.3718C66.0065 57.1735 65.7604 56.9753 65.4937 56.8146C65.0596 56.5514 64.5947 56.3019 64.1367 56.0797C63.6787 55.8575 63.1728 55.6661 62.7147 55.4166L62.4276 57.6042C62.9096 57.5256 63.3847 57.4196 63.8393 57.2385C64.352 57.0334 64.8203 56.7531 65.2647 56.4284C65.5108 56.2472 65.7569 56.0592 65.9894 55.8541C66.0441 55.8062 66.1671 55.731 65.9142 55.9088C65.9518 55.8814 65.986 55.8541 66.0236 55.8267C66.1295 55.7515 66.2389 55.6763 66.3483 55.6046C66.8063 55.2969 67.237 54.9448 67.6199 54.5483C67.9446 54.2133 68.2147 53.8339 68.512 53.475C68.8094 53.1161 69.182 52.8221 69.476 52.4598C69.6674 52.2239 69.8451 51.9778 70.0229 51.7317C70.0537 51.6907 70.081 51.6497 70.1118 51.6086C70.2622 51.4001 69.9785 51.7761 70.0844 51.6428C70.2177 51.4822 70.3476 51.3181 70.4502 51.1369C70.6553 50.7678 70.8672 50.3986 71.1099 50.0533C71.2637 49.8312 71.3765 49.585 71.5132 49.3526C71.65 49.1202 71.7799 48.8843 71.8961 48.6382C72.0431 48.3271 72.1764 48.0092 72.2823 47.6811C72.3883 47.3529 72.402 47.0248 72.4362 46.6898L72.3917 47.0077C72.4738 46.5121 72.6994 46.0848 72.7028 45.5686C72.7096 44.9431 72.1456 44.3449 71.5064 44.3722C70.8672 44.3996 70.3169 44.8986 70.31 45.5686C70.31 45.6165 70.31 45.6609 70.3032 45.7088L70.3476 45.3909C70.31 45.6336 70.228 45.8626 70.1562 46.095C70.0605 46.3958 70.0468 46.7035 70.0229 47.0145L70.0673 46.6966C70.04 46.9017 69.9648 47.1034 69.8896 47.2983C69.8657 47.3598 69.7836 47.4589 69.8793 47.3324C69.9921 47.1854 69.8691 47.3529 69.8486 47.3974C69.8007 47.5033 69.7494 47.6059 69.6947 47.705C69.4897 48.0981 69.2777 48.5117 69.0248 48.8741C68.7992 49.1988 68.5907 49.5474 68.4027 49.8961C68.3821 49.9371 68.3548 49.9747 68.3343 50.0157C68.2693 50.1525 68.4915 49.8277 68.3958 49.9474C68.2796 50.0944 68.16 50.2448 68.0472 50.3952C67.9856 50.4772 67.9275 50.5592 67.8694 50.6413C67.8387 50.6823 67.8113 50.7233 67.7805 50.7643C67.7566 50.7951 67.7361 50.8259 67.7122 50.8566C67.6575 50.9284 67.6814 50.8976 67.784 50.7643C67.7669 50.7575 67.4216 51.154 67.3772 51.195C67.2165 51.3489 67.0593 51.5027 66.9157 51.6702C66.6252 52.0052 66.3722 52.3641 66.0783 52.6956C65.9449 52.846 65.8014 52.9862 65.6544 53.1229C65.5792 53.1947 65.5006 53.2665 65.422 53.3348C65.3809 53.369 65.3433 53.3998 65.3023 53.434C65.1109 53.5981 65.4937 53.3041 65.3023 53.434C64.8853 53.7143 64.4922 54.0151 64.1025 54.333C64.0683 54.3603 63.9282 54.4629 64.0718 54.3603C64.2324 54.2475 64.0034 54.4082 63.9726 54.4321C63.8803 54.497 63.7846 54.562 63.6855 54.6201C63.5829 54.6851 63.477 54.7534 63.3744 54.8184C63.2787 54.8765 63.1488 54.9209 63.0668 54.9927C63.2035 54.8799 63.2548 54.9209 63.142 54.9619C63.0702 54.9893 62.9984 55.0132 62.9266 55.0371C62.807 55.0781 62.684 55.1123 62.5575 55.1465C62.3079 55.2115 62.055 55.2593 61.7986 55.3003C61.6175 55.3311 61.3987 55.4815 61.2722 55.608C61.0842 55.796 60.9783 56.0353 60.9441 56.295C60.8825 56.7531 61.0945 57.2556 61.5149 57.488C61.9354 57.7204 62.3729 57.8879 62.8036 58.0862C63.2069 58.2742 63.5898 58.4998 63.9829 58.7117C64.1777 58.8177 64.3657 58.9271 64.5469 59.0536C64.7178 59.1732 64.4922 59.0228 64.4819 59.0023C64.499 59.0399 64.5913 59.0877 64.6255 59.1185C64.7281 59.2005 64.8272 59.286 64.9297 59.3646C65.0699 59.474 65.2134 59.5834 65.357 59.6893C65.4014 59.7235 65.6783 59.9389 65.5177 59.8056C65.357 59.6723 65.545 59.8295 65.5689 59.8466C65.6065 59.8773 65.6407 59.9081 65.6783 59.9389C65.7672 60.0141 65.8527 60.0893 65.9415 60.1645C66.2902 60.4619 66.6183 60.7798 66.9602 61.0874C67.1242 61.2378 67.2883 61.3814 67.4421 61.542C67.5208 61.6241 67.5994 61.7095 67.6712 61.795C67.6712 61.795 67.7532 61.9078 67.7669 61.9112C67.6575 61.7676 67.6404 61.7471 67.719 61.8497L67.7635 61.9112C68.0335 62.2838 68.2762 62.6769 68.5189 63.0666C68.6419 63.2648 68.7616 63.4597 68.8744 63.6647C68.9291 63.7639 68.9769 63.863 69.0248 63.9621C69.1136 64.1433 69.0008 63.904 68.994 63.8801C69.0145 63.9519 69.0521 64.0271 69.0795 64.0954C69.3085 64.6526 69.6025 65.1654 69.9033 65.6849C69.9956 65.849 70.0844 66.0233 70.1904 66.1771C70.2758 66.3002 70.1015 66.0302 70.1289 66.0302C70.1289 66.0302 70.1665 66.1669 70.1733 66.1874C70.2793 66.5053 70.4844 66.8232 70.7954 66.9736C71.4175 67.2778 72.0328 67.1035 72.4328 66.5429C72.4909 66.4609 72.5182 66.3891 72.5592 66.2934C72.5421 66.3344 72.7165 65.9139 72.6071 66.184C72.5285 66.3822 72.631 66.1703 72.6584 66.1259C72.7712 65.9379 72.8771 65.743 72.9899 65.555C73.2326 65.1551 73.5198 64.7859 73.7556 64.3826C73.8684 64.1877 73.9812 63.9997 74.1111 63.8151C74.1829 63.716 74.2547 63.6169 74.3265 63.5212C74.4529 63.3537 74.3094 63.5417 74.2889 63.5656C74.3435 63.5041 74.3914 63.4323 74.4427 63.3674C74.6307 63.1281 74.8153 62.8888 74.9964 62.6461C75.058 62.5641 75.1161 62.4855 75.1776 62.4034C75.2152 62.3521 75.2528 62.3009 75.2904 62.2496C75.3143 62.2188 75.3348 62.1881 75.3588 62.1573C75.2562 62.2872 75.2323 62.318 75.287 62.2496C75.8442 61.5557 76.5141 60.9575 77.1875 60.3764C77.3482 60.2397 77.5088 60.0995 77.6695 59.9628C77.7447 59.9013 77.8199 59.8397 77.8951 59.7748C78.0489 59.6483 77.837 59.8192 77.8199 59.8329C77.878 59.7953 77.9327 59.7475 77.9908 59.703C78.2301 59.5218 78.4659 59.3373 78.695 59.1424C78.7326 59.1117 78.7702 59.0775 78.8078 59.0467L78.8659 58.9989C78.9445 58.9373 78.9445 58.9373 78.8659 58.9989L78.8043 59.0467C78.8351 59.0228 78.8659 59.0023 78.9 58.9784C78.9616 58.9373 79.0231 58.8963 79.0881 58.8587C79.5188 58.5989 79.9665 58.3494 80.4177 58.1272C80.8895 57.8948 81.3817 57.7068 81.8431 57.4572C82.2636 57.2282 82.4755 56.7223 82.414 56.2643C82.3559 55.837 82.0175 55.3448 81.556 55.2696C81.0946 55.1944 80.681 55.0816 80.2468 54.9414C80.0964 54.8936 80.4588 55.0474 80.322 54.9756C80.2673 54.9483 80.2127 54.9243 80.1614 54.8936C80.0793 54.8491 80.0007 54.7979 79.9221 54.75C79.7307 54.6269 79.5358 54.5107 79.3513 54.3774C79.3137 54.3501 79.2658 54.3022 79.2248 54.2851C79.2487 54.2954 79.4401 54.4594 79.2795 54.3261C79.2009 54.2612 79.1257 54.1962 79.047 54.1313C78.8249 53.9501 78.5924 53.7758 78.3566 53.6117C78.2745 53.557 78.1891 53.5023 78.107 53.4442C78.0557 53.41 78.0045 53.3724 77.9532 53.3348C77.8233 53.246 78.1309 53.4852 78.0113 53.3793C77.8336 53.222 77.6558 53.0716 77.4883 52.9076C77.1807 52.6068 76.9209 52.2649 76.6509 51.93C76.3808 51.595 76.0868 51.3181 75.786 51.0207C75.7177 50.9523 75.6527 50.8771 75.5878 50.8054C75.4476 50.6515 75.6356 50.8464 75.6322 50.8703C75.6322 50.8395 75.5399 50.7472 75.5194 50.7165C75.3417 50.4704 75.1639 50.2277 74.9725 49.9918C74.7811 49.756 75.0887 50.1832 74.9486 49.9405C74.8973 49.8517 74.8563 49.7594 74.805 49.6739C74.6922 49.4791 74.5657 49.2911 74.4495 49.0997C74.3333 48.9082 74.1795 48.7202 74.0701 48.5117C73.9539 48.293 73.8308 48.081 73.7078 47.8623C73.6462 47.7495 73.5847 47.6367 73.53 47.5204C73.5061 47.476 73.4856 47.4281 73.4651 47.3837C73.448 47.3495 73.4343 47.3153 73.4172 47.2812C73.3796 47.1991 73.3967 47.2333 73.4651 47.3905C73.4822 47.3564 73.3625 47.1137 73.3454 47.0692C73.3044 46.9428 73.2634 46.8163 73.2429 46.683L73.2873 47.0009C73.2634 46.6898 73.2497 46.3787 73.154 46.0814C73.0788 45.8489 72.9968 45.6165 72.9626 45.3772L73.007 45.6951C73.0002 45.6507 73.0002 45.6028 73.0002 45.5549C72.9933 44.9294 72.4567 44.3278 71.8038 44.3586C71.1509 44.3893 70.6006 44.885 70.6074 45.5549L70.6006 45.572Z" fill="black"/>
<path d="M16.3671 54.8013C16.3637 54.9072 16.4047 55.0371 16.4355 55.1328C16.4628 55.2285 16.497 55.3072 16.5107 55.396C16.5243 55.4849 16.5107 55.5533 16.5346 55.6387C16.6166 55.9361 16.7499 56.2164 16.914 56.4864C16.9721 56.5822 17.0166 56.6847 17.0747 56.777C17.1328 56.8693 17.1977 56.9445 17.2456 57.0334C17.2934 57.1222 17.3413 57.1872 17.396 57.2761C17.4507 57.3649 17.4883 57.4675 17.5635 57.5563C17.6968 57.717 17.813 57.9016 17.9532 58.0657C18.0454 58.1716 18.1617 58.2639 18.2574 58.3665C18.5035 58.6194 18.6915 58.9202 18.9479 59.1629C19.088 59.2962 19.2384 59.4295 19.3888 59.5321C19.5426 59.6346 19.6589 59.7098 19.7887 59.8226C19.9186 59.9354 20.0759 60.0517 20.2194 60.1371C20.363 60.226 20.4656 60.3046 20.6228 60.3661C20.8587 60.4618 21.115 60.52 21.3714 60.561C21.0637 60.7319 20.7083 60.8481 20.4074 61.0293C20.2297 61.1352 20.028 61.231 19.8639 61.3335C19.6999 61.4395 19.5666 61.5659 19.4298 61.6753C19.2931 61.7847 19.1906 61.8565 19.0607 61.9659C18.9308 62.0753 18.7701 62.2154 18.6436 62.3248C18.5172 62.4342 18.442 62.523 18.3155 62.629C18.1924 62.7316 18.066 62.8512 17.96 62.9742C17.7515 63.2067 17.5566 63.4904 17.3755 63.7263C17.1943 63.9621 17.0097 64.1877 16.8764 64.4236C16.7465 64.6594 16.5927 64.8474 16.4594 65.0662C16.4047 65.1585 16.3466 65.2645 16.3056 65.3328C16.2645 65.4012 16.2577 65.408 16.2269 65.4627C16.1996 65.5174 16.1928 65.5618 16.1517 65.6097L16.1312 65.5995C16.0971 65.5516 16.1005 65.514 16.08 65.4593C16.0595 65.4046 16.0492 65.3944 16.0082 65.326C15.9672 65.2542 15.892 65.1243 15.8407 65.0354C15.7176 64.8201 15.598 64.6253 15.5057 64.3894C15.4134 64.1535 15.2904 63.9484 15.14 63.7126C14.993 63.4767 14.8186 63.1964 14.6272 62.9674C14.5281 62.8478 14.4016 62.7247 14.282 62.6188C14.1623 62.5162 14.0837 62.4205 13.9607 62.3145C13.8342 62.2086 13.6735 62.0684 13.5436 61.959C13.4137 61.8497 13.3112 61.7813 13.1745 61.6753C13.0377 61.5694 12.9044 61.4463 12.7404 61.3438C12.5763 61.2412 12.3746 61.1489 12.1969 61.0429C11.896 60.8652 11.5406 60.7524 11.2363 60.5815C11.4927 60.5405 11.7491 60.4824 11.9849 60.3866C12.1422 60.3251 12.2447 60.2465 12.3883 60.1576C12.5318 60.0688 12.6857 59.9525 12.8156 59.8397C12.9454 59.7269 13.0617 59.6517 13.2155 59.5492C13.3693 59.4466 13.5163 59.3133 13.6564 59.1766C13.9094 58.9339 14.0974 58.6297 14.3401 58.3767C14.4392 58.2742 14.552 58.1819 14.6443 58.0759C14.7845 57.9153 14.8973 57.7273 15.0306 57.5666C15.1058 57.4777 15.1434 57.3752 15.1981 57.2829C15.2528 57.194 15.3006 57.1291 15.3485 57.0402C15.3963 56.9513 15.4613 56.8761 15.516 56.7838C15.5741 56.6915 15.6185 56.589 15.6732 56.4933C15.8373 56.2198 15.9706 55.9429 16.0526 55.6421C16.0765 55.5567 16.0663 55.4883 16.0765 55.3994C16.0868 55.3106 16.121 55.232 16.1517 55.1362C16.1825 55.0405 16.2235 54.9106 16.2201 54.8047" fill="#FFE26D"/>
<path d="M15.342 54.8013C15.3522 55.044 15.3967 55.314 15.4889 55.5396C15.5641 55.7174 15.4958 55.3277 15.4889 55.5191C15.4855 55.6729 15.5197 55.837 15.5641 55.984C15.6804 56.3873 15.8923 56.7531 16.0906 57.1223C16.2546 57.4265 16.4495 57.7273 16.6341 58.0178C16.699 58.117 16.9759 58.428 16.7639 58.1819C16.8255 58.2537 16.8767 58.3357 16.9314 58.4109C17.0716 58.5989 17.2083 58.7767 17.3758 58.9373C17.6288 59.18 17.8339 59.4569 18.0663 59.7201C18.3466 60.038 18.6952 60.3046 19.0542 60.5336C19.2524 60.6601 18.8798 60.3832 19.0678 60.5405C19.1943 60.6464 19.3242 60.7456 19.4541 60.8447C19.584 60.9438 19.731 61.0361 19.8745 61.125C20.2471 61.354 20.6744 61.4771 21.1017 61.5454L20.8556 59.6723C20.2129 60.0175 19.543 60.2636 18.9653 60.7285C18.9106 60.7729 18.8593 60.8174 18.808 60.8618C18.7602 60.9028 18.6235 61.0566 18.8012 60.8721C18.6542 61.0259 18.4491 61.1387 18.2851 61.2788C18.0492 61.4805 17.8236 61.6924 17.5912 61.8975C17.304 62.1505 17.0716 62.4308 16.8426 62.735C16.74 62.8717 16.6443 63.0153 16.5349 63.1452C16.6511 63.0119 16.5725 63.0973 16.5042 63.1828C16.4187 63.2922 16.3298 63.405 16.2478 63.5178C16.0495 63.7844 15.8889 64.0749 15.7009 64.3518C15.5402 64.5877 15.424 64.8475 15.2702 65.0833L16.6717 64.7141L16.6511 64.7039L17.0203 65.0731C17.2117 65.4388 16.993 64.9739 16.9588 64.909C16.9314 64.8577 16.9007 64.8064 16.8733 64.7552C16.8118 64.6492 16.7503 64.5432 16.6922 64.4407C16.6272 64.3245 16.4666 64.133 16.4529 63.9963C16.5042 64.116 16.5144 64.1399 16.4836 64.0681C16.446 63.9758 16.405 63.8801 16.3674 63.7878C16.3367 63.7194 16.3059 63.6511 16.2717 63.5861C15.9402 62.9538 15.5129 62.3385 14.983 61.8565C14.7574 61.648 14.5353 61.4429 14.2994 61.2446C14.1422 61.1113 13.9747 60.9849 13.8072 60.8618C13.6192 60.7216 13.9781 61.0054 13.8003 60.855C13.7149 60.7832 13.626 60.7148 13.5406 60.6465C12.9971 60.226 12.3578 60.0038 11.7597 59.6825L11.5135 61.5557C11.9408 61.4839 12.3681 61.3643 12.7407 61.1353C12.8842 61.0464 13.0244 60.9541 13.1611 60.855C13.2979 60.7558 13.4209 60.6567 13.5474 60.5507C13.7046 60.4174 13.3765 60.6601 13.5576 60.5439C13.9131 60.3149 14.2584 60.0448 14.5387 59.7269C14.7711 59.4637 14.9694 59.1869 15.2223 58.9408C15.3898 58.7801 15.5265 58.5989 15.6667 58.4143C15.7214 58.3426 15.7692 58.2469 15.8342 58.1853C15.7351 58.3186 15.7351 58.3152 15.841 58.1785C15.882 58.1272 15.9231 58.0725 15.9607 58.0178C16.1487 57.7273 16.3367 57.4231 16.5007 57.1188C16.699 56.7497 16.9109 56.3873 17.0271 55.9806C17.0716 55.8302 17.1023 55.6695 17.1023 55.5157C17.1058 55.4336 17.1023 55.4371 17.0955 55.5294C17.0784 55.6216 17.0818 55.6251 17.1058 55.5396C17.2015 55.314 17.2425 55.0405 17.2562 54.8013C17.2801 54.2646 16.7674 53.7519 16.2307 53.7758C15.6564 53.8031 15.2292 54.227 15.2052 54.8013C15.2189 54.5073 15.2018 54.7705 15.1745 54.8594C15.154 54.9243 15.13 54.9893 15.1129 55.0576C15.0822 55.1875 15.0685 55.3277 15.0582 55.4576C15.048 55.6387 15.13 55.2012 15.0446 55.4747C15.0343 55.5123 15.0206 55.5464 15.007 55.584C14.966 55.69 14.9694 55.6798 15.0206 55.5533C15.0104 55.6216 14.9489 55.7037 14.9181 55.7618C14.8395 55.9088 14.7574 56.0558 14.6754 56.2027C14.6412 56.2643 14.2105 56.9889 14.1969 56.9855L14.2721 56.8864C14.2037 56.9753 14.1353 57.0607 14.0704 57.1496C14.0294 57.2077 13.9849 57.2624 13.9439 57.3239C13.879 57.4128 13.8892 57.4025 13.9747 57.2863C13.9439 57.3239 13.9131 57.3581 13.8824 57.3923C13.8345 57.4436 13.7798 57.4914 13.7286 57.5427C13.4927 57.7683 13.3115 58.0349 13.0962 58.2776C12.9834 58.4075 12.8535 58.5203 12.727 58.6399C12.5766 58.7801 12.8911 58.534 12.7099 58.6536C12.6484 58.6946 12.5903 58.7357 12.5288 58.7767C12.3408 58.9066 12.1767 59.0741 11.9853 59.2005C12.2006 59.057 11.975 59.2005 11.9442 59.221C11.8861 59.2586 11.8246 59.2962 11.7665 59.3338C11.7391 59.3509 11.5716 59.4774 11.5443 59.4603L11.6537 59.4125C11.6058 59.4296 11.558 59.4467 11.5067 59.4603C11.3324 59.5116 11.1546 59.5492 10.9769 59.58C10.5838 59.6449 10.2898 60.0722 10.242 60.4311C10.1907 60.8208 10.3718 61.2583 10.7308 61.4532C11.0213 61.6104 11.3358 61.7198 11.6263 61.877C11.7699 61.9556 11.9169 62.0343 12.0605 62.1129C12.1186 62.1436 12.1767 62.1778 12.2348 62.212C12.2758 62.2359 12.3134 62.2633 12.351 62.294L12.2519 62.2188C12.3032 62.2257 12.416 62.3521 12.457 62.3863C12.5629 62.4684 12.6689 62.5504 12.7749 62.629C12.8022 62.6495 12.8261 62.6666 12.8535 62.6871C12.915 62.7316 12.8877 62.7111 12.7749 62.6256C12.7851 62.6188 12.9082 62.7384 12.9321 62.7555C13.1782 62.964 13.4107 63.1794 13.6465 63.3981C13.7491 63.4938 13.8926 63.6101 13.9644 63.7331C13.8448 63.5178 13.9576 63.7331 13.9849 63.7741C14.0362 63.8493 14.084 63.9211 14.1319 63.9963C14.2208 64.1365 14.3097 64.2766 14.3951 64.4168C14.4327 64.4817 14.4737 64.5467 14.5079 64.615C14.5318 64.6595 14.5523 64.7039 14.5729 64.7483C14.525 64.6287 14.5147 64.6048 14.5421 64.6765C14.607 64.7039 14.672 64.9876 14.7198 65.0902C14.7506 65.1551 14.7848 65.22 14.819 65.2816C14.8908 65.408 14.9625 65.5345 15.0377 65.661C15.0822 65.7362 15.3078 66.0917 15.1198 65.767C15.1779 65.8695 15.195 65.9994 15.2599 66.1019C15.3522 66.2524 15.4889 66.4028 15.6496 66.4814C16.1658 66.7343 16.7332 66.6078 17.0511 66.1122C17.1912 65.8969 17.2972 65.6576 17.4408 65.4422C17.6151 65.179 17.7757 64.8987 17.9603 64.6424C17.9911 64.6013 18.1654 64.3621 18.015 64.5672C18.0971 64.4544 18.1893 64.345 18.2748 64.2322C18.3603 64.1194 18.4491 64.0032 18.5346 63.8869C18.603 63.7981 18.5961 63.8083 18.5107 63.9177C18.5346 63.8869 18.5551 63.8596 18.579 63.8322C18.6235 63.7775 18.6713 63.7194 18.7192 63.6682C18.8217 63.5554 18.9345 63.4528 19.0507 63.3503C19.2729 63.152 19.4917 62.9503 19.7173 62.7555C19.7378 62.735 19.8814 62.5948 19.8985 62.6051C19.7036 62.7555 19.8677 62.5914 19.8985 62.6051C20.0591 62.482 20.2164 62.359 20.3702 62.2291C20.5308 62.0889 20.2095 62.318 20.3907 62.2188C20.4591 62.1812 20.5274 62.1368 20.5958 62.0992C20.7325 62.024 20.8658 61.9488 20.9991 61.877C21.2897 61.7164 21.6042 61.6036 21.8981 61.4463C22.257 61.2549 22.4416 60.8139 22.3869 60.4243C22.3391 60.0585 22.0485 59.6381 21.652 59.5731C21.4708 59.5424 21.2931 59.5082 21.1188 59.4535C21.0812 59.4432 21.0436 59.4296 21.0094 59.4159C20.9376 59.3885 20.9615 59.4022 21.0812 59.4501C21.0538 59.4637 20.9137 59.3578 20.8863 59.3373C20.7564 59.2552 20.6095 59.1766 20.4932 59.0741C20.6812 59.2347 20.5103 59.0809 20.4659 59.0467C20.3463 58.9476 20.2198 58.8553 20.0933 58.763C20.0352 58.722 19.9737 58.681 19.9121 58.6399C19.7173 58.5169 20.0728 58.7869 19.895 58.6263C19.7652 58.5101 19.6387 58.3973 19.5225 58.2674C19.3071 58.0247 19.1225 57.758 18.8867 57.5359C18.8354 57.4846 18.7807 57.4367 18.7328 57.3855C18.6987 57.3513 18.6679 57.3171 18.6406 57.2795C18.7192 57.3855 18.7363 57.406 18.6918 57.3444C18.644 57.2761 18.5961 57.2111 18.5448 57.1428C18.5038 57.0881 18.4628 57.0368 18.4218 56.9821C18.3158 56.8454 18.3158 56.8454 18.415 56.9753C18.4047 56.9753 18.1859 56.589 18.1723 56.5685C18.0936 56.442 18.0082 56.3224 17.933 56.1925C17.8509 56.0489 17.7689 55.9019 17.6903 55.755C17.6834 55.7379 17.5775 55.5601 17.5877 55.5464C17.639 55.6729 17.6458 55.6832 17.6014 55.5772L17.5741 55.5054C17.557 55.4576 17.5433 55.4063 17.5296 55.3584C17.5467 55.5328 17.5536 55.5635 17.5467 55.4542C17.5467 55.3208 17.5262 55.1807 17.492 55.0542C17.4749 54.9859 17.451 54.9209 17.4305 54.856C17.4032 54.7671 17.3861 54.5039 17.3997 54.7979C17.3758 54.2612 16.9451 53.7485 16.3743 53.7724C15.8376 53.7963 15.3249 54.2236 15.3488 54.7979L15.342 54.8013Z" fill="black"/>
</svg>
