<?xml version="1.0" encoding="iso-8859-1"?>
<!-- Generator: Adobe Illustrator 18.0.0, SVG Export Plug-In . SVG Version: 6.00 Build 0)  -->
<!DOCTYPE svg PUBLIC "-//W3C//DTD SVG 1.1//EN" "http://www.w3.org/Graphics/SVG/1.1/DTD/svg11.dtd">
<svg version="1.1" id="Capa_1" xmlns="http://www.w3.org/2000/svg" xmlns:xlink="http://www.w3.org/1999/xlink" x="0px" y="0px"
	 viewBox="0 0 472.143 472.143" style="enable-background:new 0 0 472.143 472.143;" xml:space="preserve">
<g>
	<path style="fill:currentColor" d="M31.651,282.194V66.289c0-1.383,1.127-2.504,2.504-2.504h318.137c1.376,0,2.504,1.121,2.504,2.504
		v61.41h31.652v-61.41c0-18.832-15.316-34.155-34.156-34.155H34.155C15.314,32.134,0,47.457,0,66.289v215.905
		c0,18.831,15.314,34.155,34.155,34.155h106.652v41.835h-16.814c-8.747,0-15.826,7.087-15.826,15.826
		c0,8.74,7.079,15.825,15.826,15.825h104.181v-31.651v-57.661v-15.826H34.155C32.778,284.697,31.651,283.577,31.651,282.194z"/>
	<path style="fill:currentColor" d="M435.083,159.349H296.887c-20.432,0-37.061,16.622-37.061,37.061v206.539
		c0,20.439,16.63,37.061,37.061,37.061h138.196c20.433,0,37.06-16.622,37.06-37.061V196.41
		C472.143,175.971,455.516,159.349,435.083,159.349z M291.478,196.41c0-2.982,2.426-5.41,5.409-5.41h138.196
		c2.983,0,5.41,2.428,5.41,5.41v191.817H291.478V196.41z M365.985,425.87c-4.992,0-9.211-2.93-11.328-7.087
		c-0.896-1.753-1.531-3.662-1.531-5.772c0-7.103,5.75-12.858,12.859-12.858c7.095,0,12.857,5.755,12.857,12.858
		c0,2.109-0.633,4.018-1.529,5.772C375.181,422.94,370.978,425.87,365.985,425.87z"/>
</g>
<g>
</g>
<g>
</g>
<g>
</g>
<g>
</g>
<g>
</g>
<g>
</g>
<g>
</g>
<g>
</g>
<g>
</g>
<g>
</g>
<g>
</g>
<g>
</g>
<g>
</g>
<g>
</g>
<g>
</g>
</svg>
